<?xml version="1.0" encoding="UTF-8"?>
<svg version="1.1" xmlns="http://www.w3.org/2000/svg" width="360" height="311">
<path d="M0 0 C1.12255188 0.00187317 2.24510376 0.00374634 3.40167236 0.00567627 C5.7686257 0.01238805 8.13556811 0.0262851 10.50244141 0.046875 C14.14105437 0.07812869 17.77923465 0.08785652 21.41796875 0.09375 C23.71615116 0.10291599 26.01432914 0.11329047 28.3125 0.125 C29.95457428 0.13137482 29.95457428 0.13137482 31.62982178 0.13787842 C33.13708832 0.15228973 33.13708832 0.15228973 34.67480469 0.16699219 C36.00786652 0.17723419 36.00786652 0.17723419 37.36785889 0.18768311 C39.390625 0.328125 39.390625 0.328125 40.390625 1.328125 C40.47788723 3.10883746 40.49761541 4.8929564 40.48828125 6.67578125 C40.48505859 7.75537109 40.48183594 8.83496094 40.47851562 9.94726562 C40.47013672 11.08357422 40.46175781 12.21988281 40.453125 13.390625 C40.44861328 14.53080078 40.44410156 15.67097656 40.43945312 16.84570312 C40.42762247 19.67322851 40.4111391 22.5006514 40.390625 25.328125 C32.84139686 26.35352818 25.43971657 26.44538465 17.828125 26.390625 C16.62865234 26.38611328 15.42917969 26.38160156 14.19335938 26.37695312 C11.25906141 26.36526269 8.32487051 26.34887638 5.390625 26.328125 C5.4127002 27.19501953 5.43477539 28.06191406 5.45751953 28.95507812 C5.5161703 32.20650285 5.52929406 35.45420955 5.51269531 38.70605469 C5.51462886 40.10658475 5.53412533 41.50721459 5.57226562 42.90722656 C5.87073731 54.53104042 5.87073731 54.53104042 2.26904297 58.90405273 C-0.26949387 60.90946382 -2.8591149 62.62935621 -5.609375 64.328125 C-13.81054177 71.89586832 -18.82027143 80.41548325 -23.609375 90.328125 C-24.929375 90.328125 -26.249375 90.328125 -27.609375 90.328125 C-29.14453125 88.640625 -29.14453125 88.640625 -30.671875 86.328125 C-34.80352669 80.69808461 -39.76944179 77.07385475 -45.609375 73.328125 C-46.26679687 72.9053125 -46.92421875 72.4825 -47.6015625 72.046875 C-59.11102335 65.52649375 -74.34071229 64.64212993 -87.04296875 67.578125 C-101.7391502 71.87289949 -113.94238371 80.39625279 -121.421875 94.015625 C-127.15029313 106.54047142 -128.01106921 119.69668276 -123.6796875 132.75390625 C-120.80508244 139.66764615 -117.25616285 146.08871348 -111.671875 151.140625 C-109.12645959 153.52053134 -108.66895725 153.98387198 -108.046875 157.578125 C-108.78810102 162.51963178 -109.61746454 167.4305671 -110.609375 172.328125 C-108.86914062 171.42707031 -108.86914062 171.42707031 -107.09375 170.5078125 C-92.40269994 163.22773874 -92.40269994 163.22773874 -83.58984375 165.5859375 C-70.21255919 168.91710928 -56.55627555 165.43668109 -44.921875 158.640625 C-43.96925781 158.03863281 -43.01664062 157.43664062 -42.03515625 156.81640625 C-39.609375 155.328125 -39.609375 155.328125 -36.609375 154.328125 C-36.609375 153.668125 -36.609375 153.008125 -36.609375 152.328125 C-35.949375 152.328125 -35.289375 152.328125 -34.609375 152.328125 C-34.609375 151.668125 -34.609375 151.008125 -34.609375 150.328125 C-33.949375 150.328125 -33.289375 150.328125 -32.609375 150.328125 C-32.33996094 149.77511719 -32.07054687 149.22210938 -31.79296875 148.65234375 C-30.03086275 145.1921026 -28.07351813 141.84221644 -26.14453125 138.47265625 C-22.37182078 130.74483965 -20.91706005 122.97447983 -19.671875 114.515625 C-16.41551924 94.03269737 -9.14113093 77.29114086 8.140625 64.578125 C19.15751012 57.40513749 30.69826938 52.55114806 43.390625 49.328125 C44.65132812 49.00714844 45.91203125 48.68617187 47.2109375 48.35546875 C72.14008839 42.8527848 101.70821036 43.80197759 124.5703125 55.44921875 C128.14591502 57.83130298 130.47100513 60.48888526 132.390625 64.328125 C132.52559896 66.7386668 132.60318204 69.11903085 132.62890625 71.53125 C132.636978 72.24665955 132.64504974 72.96206909 132.65336609 73.69915771 C132.66720458 75.21559224 132.6779278 76.73205788 132.68579102 78.24853516 C132.70295757 80.55562394 132.74683624 82.86126182 132.79101562 85.16796875 C132.80114712 86.64321865 132.8096618 88.11848072 132.81640625 89.59375 C132.83391434 90.2783429 132.85142242 90.96293579 132.86946106 91.66827393 C132.84704514 96.67755762 131.49005582 99.45374636 128.390625 103.328125 C112.72097405 116.7202104 86.53865364 117.45204266 67.234375 116.05078125 C52.88268536 114.78923866 37.57373356 111.78887475 27.203125 101.06640625 C24.9904872 97.72360648 24.80133444 95.49318354 24.640625 91.515625 C24.58390625 90.35417969 24.5271875 89.19273437 24.46875 87.99609375 C24.43007813 86.67544922 24.43007813 86.67544922 24.390625 85.328125 C23.936875 85.823125 23.483125 86.318125 23.015625 86.828125 C21.390625 88.328125 21.390625 88.328125 19.390625 88.328125 C19.390625 88.988125 19.390625 89.648125 19.390625 90.328125 C18.66875 91.029375 17.946875 91.730625 17.203125 92.453125 C8.47772366 100.93134783 6.60287341 111.42892847 5.015625 123.015625 C1.97404296 144.55950092 -6.70201271 162.37783189 -23.609375 176.328125 C-38.53957018 187.42538499 -55.18111269 192.73756087 -73.671875 192.515625 C-74.69603516 192.51498047 -75.72019531 192.51433594 -76.77539062 192.51367188 C-81.30843625 192.48760324 -85.49391876 192.3738711 -89.9296875 191.43359375 C-96.79842518 190.58166328 -103.3566015 194.62551264 -109.421875 197.453125 C-110.72372458 198.04362126 -112.02645605 198.63217722 -113.33007812 199.21875 C-115.87664964 200.36677712 -118.4209317 201.51962715 -120.96337891 202.67675781 C-124.42344213 204.24618342 -127.88687488 205.80497878 -131.37109375 207.3203125 C-132.78394653 207.94075439 -132.78394653 207.94075439 -134.2253418 208.57373047 C-136.609375 209.328125 -136.609375 209.328125 -139.609375 208.328125 C-138.96041107 203.50885233 -138.13744633 198.77112654 -137.1640625 194.00390625 C-136.88891792 192.63224264 -136.6141904 191.26049531 -136.33984375 189.88867188 C-135.91146388 187.75490633 -135.4805066 185.62179806 -135.04248047 183.48999023 C-134.61681527 181.41279161 -134.20206459 179.3336544 -133.7890625 177.25390625 C-133.53882324 176.02067627 -133.28858398 174.78744629 -133.03076172 173.5168457 C-132.48555908 169.39118425 -132.74786079 167.46310315 -135.24609375 164.171875 C-135.92285156 163.3984375 -136.59960938 162.625 -137.296875 161.828125 C-146.83056569 150.14551656 -151.90644911 135.38245451 -152.609375 120.328125 C-152.6609375 119.68617188 -152.7125 119.04421875 -152.765625 118.3828125 C-153.67459371 98.46124824 -145.2712638 79.77597185 -132.7890625 64.703125 C-120.90477572 51.75393797 -101.66106985 41.30893381 -83.89306641 40.15112305 C-62.1455028 39.69661526 -43.16978169 41.93589724 -25.37475586 55.46533203 C-24.31181557 56.27093063 -24.31181557 56.27093063 -23.22740173 57.09280396 C-22.69345291 57.5004599 -22.15950409 57.90811584 -21.609375 58.328125 C-21.60572937 57.75707031 -21.60208374 57.18601563 -21.59832764 56.59765625 C-21.55635412 50.62703484 -21.48690548 44.65717155 -21.40185547 38.68701172 C-21.37371728 36.46215414 -21.35246735 34.23719793 -21.33837891 32.01220703 C-21.31685068 28.80450197 -21.27014822 25.59797397 -21.21875 22.390625 C-21.21752136 21.40384766 -21.21629272 20.41707031 -21.21502686 19.40039062 C-21.06355921 12.17697743 -19.88035494 6.52652169 -14.58496094 1.34863281 C-9.78190044 -0.2986262 -5.03921528 -0.0572585 0 0 Z " fill="#019C74" transform="translate(165.609375,43.671875)"/>
<path d="M0 0 C1.00161667 -0.01283524 2.00323334 -0.02567047 3.03520203 -0.03889465 C4.12678116 -0.04628159 5.21836029 -0.05366852 6.34301758 -0.0612793 C7.45937088 -0.06935104 8.57572418 -0.07742279 9.72590637 -0.08573914 C12.09573809 -0.09960191 14.46558996 -0.11031419 16.83544922 -0.11816406 C20.45489656 -0.13534307 24.07342286 -0.17920689 27.69262695 -0.22338867 C29.99275043 -0.23351802 32.29288169 -0.24203336 34.59301758 -0.2487793 C35.67447556 -0.26628738 36.75593353 -0.28379547 37.87016296 -0.30183411 C42.36299372 -0.28891454 45.66042401 -0.08722826 49.84423828 1.64111328 C55.21041825 7.18227158 55.7449412 14.69919488 55.68772888 22.10194397 C55.69311442 22.95336816 55.69849996 23.80479235 55.70404869 24.68201727 C55.71825604 27.51000478 55.7112426 30.33751942 55.70410156 33.16552734 C55.70980881 35.20311354 55.71677443 37.24069654 55.72489929 39.27827454 C55.74280385 44.79467805 55.7416677 50.31092227 55.73595691 55.82734609 C55.73286202 60.43733913 55.73896066 65.0473017 55.74499565 69.6572904 C55.75902958 80.5327833 55.7574882 91.40819761 55.74609375 102.28369141 C55.7346056 113.4962971 55.74870261 124.70866379 55.77549022 135.92123801 C55.79764946 145.5579999 55.80428432 155.19468678 55.79841381 164.83147234 C55.79504457 170.58287212 55.7974577 176.3341186 55.81466484 182.0854969 C55.830136 187.49221426 55.8261763 192.89857732 55.8073597 198.30528069 C55.80367473 200.28698535 55.80677955 202.26871628 55.81724548 204.25039673 C55.830463 206.96035288 55.81890144 209.66913731 55.80125427 212.37904358 C55.81566178 213.54885673 55.81566178 213.54885673 55.83036035 214.74230248 C55.74502174 221.13272107 53.91710237 226.61802099 49.27563477 231.15649414 C44.47257427 232.80375316 39.72988911 232.56238546 34.69067383 232.50512695 C33.56812195 232.50325378 32.44557007 232.50138062 31.28900146 232.49945068 C28.92204813 232.4927389 26.55510572 232.47884185 24.18823242 232.45825195 C20.54961946 232.42699827 16.91143917 232.41727044 13.27270508 232.41137695 C10.97452267 232.40221096 8.67634469 232.39183648 6.37817383 232.38012695 C4.73609955 232.37375214 4.73609955 232.37375214 3.06085205 232.36724854 C2.05600769 232.35764099 1.05116333 232.34803345 0.01586914 232.33813477 C-0.87283875 232.33130676 -1.76154663 232.32447876 -2.67718506 232.31744385 C-4.69995117 232.17700195 -4.69995117 232.17700195 -5.69995117 231.17700195 C-5.79927271 229.4814147 -5.83075124 227.78174448 -5.83276367 226.08325195 C-5.83469727 224.53831055 -5.83469727 224.53831055 -5.83666992 222.9621582 C-5.83280273 221.87805664 -5.82893555 220.79395508 -5.82495117 219.67700195 C-5.82881836 218.59290039 -5.83268555 217.50879883 -5.83666992 216.3918457 C-5.83538086 215.36188477 -5.8340918 214.33192383 -5.83276367 213.27075195 C-5.83163574 212.3187793 -5.83050781 211.36680664 -5.8293457 210.38598633 C-5.69995117 208.17700195 -5.69995117 208.17700195 -4.69995117 207.17700195 C6.90009088 205.88810839 18.62862123 206.17700195 30.30004883 206.17700195 C29.97004883 146.77700195 29.64004883 87.37700195 29.30004883 26.17700195 C22.70004883 26.17700195 16.10004883 26.17700195 9.30004883 26.17700195 C4.28441358 25.89039422 -0.69921937 25.60130647 -5.69995117 25.17700195 C-5.72882101 21.19785036 -5.74670523 17.21872542 -5.76245117 13.23950195 C-5.77083008 12.10319336 -5.77920898 10.96688477 -5.7878418 9.79614258 C-5.79106445 8.71655273 -5.79428711 7.63696289 -5.79760742 6.5246582 C-5.80284424 5.52442627 -5.80808105 4.52419434 -5.81347656 3.49365234 C-5.61009488 -0.65664611 -3.67296205 0.04082391 0 0 Z " fill="#014DA2" transform="translate(288.699951171875,43.822998046875)"/>
<path d="M0 0 C2.80183432 1.34435061 4.70740287 2.59217753 6.875 4.8125 C21.34051385 17.3248643 47.04777294 17.00462499 65.046875 15.87109375 C77.88037995 14.87008036 92.07040555 11.6735837 102 3 C102.66 2.01 103.32 1.02 104 0 C104.99 0 105.98 0 107 0 C107.20455552 4.49932223 107.32806276 8.99743915 107.4375 13.5 C107.52547852 15.40265625 107.52547852 15.40265625 107.61523438 17.34375 C107.80865221 27.95409977 107.80865221 27.95409977 103.75 32.734375 C89.67384942 46.46701865 65.63102923 46.39435189 47.37109375 46.21875 C31.10085207 45.83234082 14.99645108 42.36643813 2.29296875 31.734375 C-1.76889716 26.71105678 -0.51069882 19.70512983 -0.3125 13.625 C-0.28994141 12.31660156 -0.26738281 11.00820312 -0.24414062 9.66015625 C-0.18535914 6.43893113 -0.10322731 3.2200568 0 0 Z " fill="#017092" transform="translate(191,185)"/>
<path d="M0 0 C2.67962901 1.2251331 4.05582294 2.06258935 6.0625 4.3125 C21.16404218 18.12880454 46.96846936 16.81351265 66 16 C78.59002692 14.96681806 92.81165499 12.18834501 102 3 C102.61875 2.401875 103.2375 1.80375 103.875 1.1875 C104.431875 0.5996875 104.431875 0.5996875 105 0 C105.99 0.495 105.99 0.495 107 1 C107.20466631 5.33262826 107.32809533 9.66400284 107.4375 14 C107.52547852 15.83111328 107.52547852 15.83111328 107.61523438 17.69921875 C107.72764126 23.64072574 107.77265034 27.9682574 103.859375 32.66796875 C88.05999733 47.66270227 62.48513979 46.57114216 42.31982422 46.13623047 C28.03568726 45.55007453 11.55089342 41.91152625 1.33862305 31.26855469 C-0.49571992 28.15990708 -0.34024836 25.85887518 -0.29296875 22.265625 C-0.28330078 20.97011719 -0.27363281 19.67460937 -0.26367188 18.33984375 C-0.23860783 16.97655646 -0.21321302 15.61327521 -0.1875 14.25 C-0.17244518 12.87110816 -0.15875817 11.49220065 -0.14648438 10.11328125 C-0.11111909 6.74179085 -0.06175904 3.37109346 0 0 Z " fill="#017191" transform="translate(191,149)"/>
<path d="M0 0 C0.66 0 1.32 0 2 0 C2.33 14.85 2.66 29.7 3 45 C13.77028872 44.96042714 13.77028872 44.96042714 24.54052734 44.90991211 C25.88899659 44.90699198 27.23746672 44.90444365 28.5859375 44.90234375 C29.63938354 44.8946698 29.63938354 44.8946698 30.71411133 44.88684082 C35.7718564 44.8859282 35.7718564 44.8859282 38 46 C38.02886984 49.97915159 38.04675406 53.95827653 38.0625 57.9375 C38.07087891 59.07380859 38.07925781 60.21011719 38.08789062 61.38085938 C38.09111328 62.46044922 38.09433594 63.54003906 38.09765625 64.65234375 C38.10289307 65.65257568 38.10812988 66.65280762 38.11352539 67.68334961 C38 70 38 70 37 71 C35.4363997 71.11414307 33.86771299 71.15957782 32.30004883 71.17700195 C31.29843216 71.18983719 30.29681549 71.20267242 29.2648468 71.21589661 C28.17326767 71.22328354 27.08168854 71.23067047 25.95703125 71.23828125 C24.84067795 71.246353 23.72432465 71.25442474 22.57414246 71.26274109 C20.20431074 71.27660386 17.83445887 71.28731615 15.46459961 71.29516602 C11.84515226 71.31234502 8.22662596 71.35620884 4.60742188 71.40039062 C2.3072984 71.41051997 0.00716714 71.41903532 -2.29296875 71.42578125 C-3.91515572 71.45204338 -3.91515572 71.45204338 -5.57011414 71.47883606 C-11.47204975 71.46186447 -15.57282614 71.34619166 -20 67 C-22.71531776 62.15606771 -23.5540392 57.59399647 -23.78515625 52.1171875 C-23.81959839 51.38473312 -23.85404053 50.65227875 -23.88952637 49.89762878 C-23.97838484 47.55631672 -24.02912114 45.21773939 -24.0625 42.875 C-24.07457489 42.0807663 -24.08664978 41.28653259 -24.09909058 40.4682312 C-24.17396391 25.46022349 -24.17396391 25.46022349 -20.1875 20.23046875 C-17.36134604 17.44933107 -14.15677383 15.35450812 -10.79150391 13.28027344 C-7.76482306 11.11729792 -5.82189525 8.23544491 -3.75 5.1875 C-2.54035012 3.42986963 -1.302976 1.68960673 0 0 Z " fill="#03AC6D" transform="translate(168,205)"/>
<path d="M0 0 C1.00161667 -0.01283524 2.00323334 -0.02567047 3.03520203 -0.03889465 C4.12678116 -0.04628159 5.21836029 -0.05366852 6.34301758 -0.0612793 C7.45937088 -0.06935104 8.57572418 -0.07742279 9.72590637 -0.08573914 C12.09573809 -0.09960191 14.46558996 -0.11031419 16.83544922 -0.11816406 C20.45489656 -0.13534307 24.07342286 -0.17920689 27.69262695 -0.22338867 C29.99275043 -0.23351802 32.29288169 -0.24203336 34.59301758 -0.2487793 C35.67447556 -0.26628738 36.75593353 -0.28379547 37.87016296 -0.30183411 C42.36299372 -0.28891454 45.66042401 -0.08722826 49.84423828 1.64111328 C55.21041825 7.18227158 55.7449412 14.69919488 55.68772888 22.10194397 C55.69311442 22.95336816 55.69849996 23.80479235 55.70404869 24.68201727 C55.71825604 27.51000478 55.7112426 30.33751942 55.70410156 33.16552734 C55.70980881 35.20311354 55.71677443 37.24069654 55.72489929 39.27827454 C55.74280385 44.79467805 55.7416677 50.31092227 55.73595691 55.82734609 C55.73286202 60.43733913 55.73896066 65.0473017 55.74499565 69.6572904 C55.75902958 80.5327833 55.7574882 91.40819761 55.74609375 102.28369141 C55.7346056 113.4962971 55.74870261 124.70866379 55.77549022 135.92123801 C55.79764946 145.5579999 55.80428432 155.19468678 55.79841381 164.83147234 C55.79504457 170.58287212 55.7974577 176.3341186 55.81466484 182.0854969 C55.830136 187.49221426 55.8261763 192.89857732 55.8073597 198.30528069 C55.80367473 200.28698535 55.80677955 202.26871628 55.81724548 204.25039673 C55.830463 206.96035288 55.81890144 209.66913731 55.80125427 212.37904358 C55.81566178 213.54885673 55.81566178 213.54885673 55.83036035 214.74230248 C55.74502174 221.13272107 53.91710237 226.61802099 49.27563477 231.15649414 C44.47257427 232.80375316 39.72988911 232.56238546 34.69067383 232.50512695 C33.56812195 232.50325378 32.44557007 232.50138062 31.28900146 232.49945068 C28.92204813 232.4927389 26.55510572 232.47884185 24.18823242 232.45825195 C20.54961946 232.42699827 16.91143917 232.41727044 13.27270508 232.41137695 C10.97452267 232.40221096 8.67634469 232.39183648 6.37817383 232.38012695 C4.73609955 232.37375214 4.73609955 232.37375214 3.06085205 232.36724854 C2.05600769 232.35764099 1.05116333 232.34803345 0.01586914 232.33813477 C-0.87283875 232.33130676 -1.76154663 232.32447876 -2.67718506 232.31744385 C-4.69995117 232.17700195 -4.69995117 232.17700195 -5.69995117 231.17700195 C-5.79927271 229.4814147 -5.83075124 227.78174448 -5.83276367 226.08325195 C-5.83469727 224.53831055 -5.83469727 224.53831055 -5.83666992 222.9621582 C-5.83280273 221.87805664 -5.82893555 220.79395508 -5.82495117 219.67700195 C-5.82881836 218.59290039 -5.83268555 217.50879883 -5.83666992 216.3918457 C-5.83538086 215.36188477 -5.8340918 214.33192383 -5.83276367 213.27075195 C-5.83163574 212.3187793 -5.83050781 211.36680664 -5.8293457 210.38598633 C-5.69995117 208.17700195 -5.69995117 208.17700195 -4.69995117 207.17700195 C6.90009088 205.88810839 18.62862123 206.17700195 30.30004883 206.17700195 C29.97004883 146.77700195 29.64004883 87.37700195 29.30004883 26.17700195 C22.70004883 26.17700195 16.10004883 26.17700195 9.30004883 26.17700195 C4.28441358 25.89039422 -0.69921937 25.60130647 -5.69995117 25.17700195 C-5.72882101 21.19785036 -5.74670523 17.21872542 -5.76245117 13.23950195 C-5.77083008 12.10319336 -5.77920898 10.96688477 -5.7878418 9.79614258 C-5.79106445 8.71655273 -5.79428711 7.63696289 -5.79760742 6.5246582 C-5.80284424 5.52442627 -5.80808105 4.52419434 -5.81347656 3.49365234 C-5.61009488 -0.65664611 -3.67296205 0.04082391 0 0 Z M-2.69995117 5.17700195 C-2.84512861 8.08635775 -2.88625913 10.89694796 -2.82495117 13.80200195 C-2.81592773 14.60379883 -2.8069043 15.4055957 -2.79760742 16.23168945 C-2.7740134 18.21358718 -2.73814182 20.19533176 -2.69995117 22.17700195 C-1.67522705 22.20205811 -0.65050293 22.22711426 0.40527344 22.25292969 C4.19414559 22.34684679 7.98282764 22.44710513 11.77148438 22.54931641 C13.41369186 22.59272492 15.05594622 22.63439553 16.69824219 22.67431641 C19.05393628 22.73187635 21.40939311 22.79561087 23.76489258 22.8605957 C24.50343979 22.8773082 25.241987 22.89402069 26.00291443 22.91123962 C31.18617712 23.06313025 31.18617712 23.06313025 32.30004883 24.17700195 C32.41008154 26.56727217 32.45500469 28.92927537 32.45826721 31.3205719 C32.46567418 32.45503932 32.46567418 32.45503932 32.47323078 33.61242527 C32.48868162 36.16593092 32.49698679 38.71941129 32.50537109 41.27294922 C32.51494367 43.09573594 32.52495337 44.9185204 32.53536987 46.74130249 C32.56249229 51.70594664 32.583462 56.67060037 32.60337186 61.63527799 C32.62518632 66.81765584 32.65259714 72.00000392 32.6794281 77.18235779 C32.72941658 87.00315596 32.77433249 96.8239706 32.81745046 106.64480108 C32.86677035 117.82238215 32.92170788 128.99993337 32.97713006 140.17748559 C33.09104455 163.17729654 33.19786287 186.17713611 33.30004883 209.17700195 C32.28056152 209.19682129 31.26107422 209.21664062 30.21069336 209.23706055 C26.43472235 209.31303003 22.65914109 209.40176005 18.88354492 209.49438477 C17.24820643 209.53271047 15.61278259 209.56755702 13.97729492 209.59887695 C11.62883972 209.64445037 9.28097388 209.70245562 6.93286133 209.76293945 C6.1994754 209.77449066 5.46608948 209.78604187 4.71047974 209.79794312 C0.55027778 209.79568293 0.55027778 209.79568293 -2.69995117 212.17700195 C-2.8716602 214.90397418 -2.93240797 217.51606663 -2.88745117 220.23950195 C-2.88680664 220.98522461 -2.88616211 221.73094727 -2.88549805 222.49926758 C-3.18817648 226.13717828 -3.18817648 226.13717828 -1.69995117 229.17700195 C-0.22301554 229.29087121 1.25926266 229.33654979 2.74047852 229.35400391 C3.68526062 229.36683914 4.63004272 229.37967438 5.60345459 229.39289856 C6.63254944 229.40028549 7.66164429 229.40767242 8.72192383 229.4152832 C9.77406067 229.42335495 10.82619751 229.4314267 11.91021729 229.43974304 C14.14300885 229.45360419 16.37582179 229.46431721 18.60864258 229.47216797 C22.02181337 229.48935973 25.43401063 229.53322605 28.84692383 229.57739258 C31.01358335 229.58752081 33.18025114 229.5960365 35.34692383 229.6027832 C36.36792175 229.62029129 37.38891968 229.63779938 38.44085693 229.65583801 C42.87204012 229.64229733 45.54554766 229.62145435 49.42211914 227.33789062 C52.96407163 223.26225081 52.44838123 218.92372284 52.44721985 213.80827332 C52.45089654 212.94423034 52.45457322 212.08018736 52.45836133 211.18996125 C52.46940833 208.28353592 52.47324371 205.37714632 52.47705078 202.47070312 C52.48331458 200.39135118 52.48996131 198.31200035 52.4969635 196.23265076 C52.51437904 190.57558506 52.52492645 184.91852781 52.53316903 179.26144195 C52.53831726 175.7287651 52.54439303 172.19609089 52.55068016 168.66341591 C52.56973247 157.61521279 52.58396439 146.56701636 52.59229213 135.51879996 C52.60207033 122.75638738 52.628405 109.99414798 52.66879302 97.23179644 C52.69892522 87.37269891 52.71375819 77.51365111 52.71707314 67.65450841 C52.71942662 61.76333489 52.72842609 55.87234637 52.75353432 49.98122215 C52.77676975 44.44001562 52.78106643 38.89911649 52.77077293 33.35787392 C52.77027639 31.32372136 52.77663167 29.28955389 52.79032898 27.25544739 C52.80798075 24.47882172 52.80097486 21.70330734 52.78779602 18.92668152 C52.79876527 18.12132389 52.80973451 17.31596626 52.82103616 16.48620385 C52.76135447 11.2797198 51.74245567 8.31154878 48.30004883 4.17700195 C45.91933101 2.98664304 44.44687503 3.04402049 41.7902832 3.03173828 C40.85591431 3.02535843 39.92154541 3.01897858 38.9588623 3.0124054 C37.94739136 3.01129257 36.93592041 3.01017975 35.89379883 3.0090332 C34.85815796 3.0057048 33.82251709 3.0023764 32.75549316 2.99894714 C30.56315557 2.9938786 28.37081024 2.9915388 26.1784668 2.99169922 C22.81391795 2.98951097 19.44969594 2.97134954 16.08520508 2.95239258 C13.95890412 2.94945907 11.8326016 2.94747399 9.70629883 2.9465332 C8.69482788 2.93934769 7.68335693 2.93216217 6.64123535 2.92475891 C5.70686646 2.92783554 4.77249756 2.93091217 3.80981445 2.93408203 C2.57309998 2.9319445 2.57309998 2.9319445 1.31140137 2.92976379 C-0.92900992 2.99569051 -0.92900992 2.99569051 -2.69995117 5.17700195 Z " fill="#003685" transform="translate(288.699951171875,43.822998046875)"/>
<path d="M0 0 C-0.33 0.66 -0.66 1.32 -1 2 C-6.02213894 1.49778611 -9.56509564 0.35899168 -14 -2 C-23.00065802 -5.55839968 -32.04859484 -6.1790298 -41.625 -6.1875 C-42.52686035 -6.18830566 -43.4287207 -6.18911133 -44.35791016 -6.18994141 C-48.50553053 -6.52692565 -48.50553053 -6.52692565 -52 -5 C-53.299375 -4.896875 -54.59875 -4.79375 -55.9375 -4.6875 C-61.47931901 -4.09590865 -65.97027628 -2.33844101 -71 0 C-72.11246094 0.47695312 -73.22492188 0.95390625 -74.37109375 1.4453125 C-82.5050547 5.16841198 -88.72351347 10.07328133 -95.0625 16.375 C-95.7644751 17.07004639 -96.4664502 17.76509277 -97.18969727 18.48120117 C-106.46821203 28.0873109 -112.78448111 39.62929222 -114 53 C-114.495 53.495 -114.495 53.495 -115 54 C-116.42489512 69.23916316 -115.39714142 83.50906937 -108.33203125 97.2421875 C-107 100 -107 100 -107 103 C-106.01 103.33 -105.02 103.66 -104 104 C-101 108.33333333 -101 108.33333333 -101 111 C-100.360625 111.28875 -99.72125 111.5775 -99.0625 111.875 C-97 113 -97 113 -96 115 C-95.58358521 121.45442931 -96.52749144 126.78043018 -98.19921875 133.0078125 C-99.99297552 139.71033778 -101.30221325 146.04909525 -101 153 C-94.86986469 150.87321836 -89.08968654 148.21353761 -83.28100586 145.33764648 C-79.85360936 143.68436921 -77.88609421 143 -74 143 C-74 142.34 -74 141.68 -74 141 C-72.68 141 -71.36 141 -70 141 C-70 140.34 -70 139.68 -70 139 C-68.68 139 -67.36 139 -66 139 C-66 138.34 -66 137.68 -66 137 C-61.38 137 -56.76 137 -52 137 C-52 137.66 -52 138.32 -52 139 C-48.35383329 138.86183041 -44.70816926 138.71318466 -41.0625 138.5625 C-40.02158203 138.52318359 -38.98066406 138.48386719 -37.90820312 138.44335938 C-36.91884766 138.40146484 -35.92949219 138.35957031 -34.91015625 138.31640625 C-33.99371338 138.27974854 -33.07727051 138.24309082 -32.13305664 138.20532227 C-30.0179272 138.22996136 -30.0179272 138.22996136 -29 137 C-26.84080757 136.50765667 -24.6721413 136.05664346 -22.5 135.625 C-16.81084209 134.44412162 -11.45874865 132.97644348 -6 131 C-6 130.34 -6 129.68 -6 129 C1.53719008 125.16528926 1.53719008 125.16528926 5.5 123.75 C10.26667283 121.36666359 13.4331903 117.90032957 17 114 C17.99 114.33 18.98 114.66 20 115 C6.48658352 129.73206125 -11.43892154 140.96569163 -31.90161133 142.17089844 C-34.95796945 142.23141547 -38.00582059 142.22418788 -41.0625 142.1875 C-42.08666016 142.18685547 -43.11082031 142.18621094 -44.16601562 142.18554688 C-48.69906125 142.15947824 -52.88454376 142.0457461 -57.3203125 141.10546875 C-64.18905018 140.25353828 -70.7472265 144.29738764 -76.8125 147.125 C-78.11434958 147.71549626 -79.41708105 148.30405222 -80.72070312 148.890625 C-83.26727464 150.03865212 -85.8115567 151.19150215 -88.35400391 152.34863281 C-91.81406713 153.91805842 -95.27749988 155.47685378 -98.76171875 156.9921875 C-100.17457153 157.61262939 -100.17457153 157.61262939 -101.6159668 158.24560547 C-104 159 -104 159 -107 158 C-106.35103607 153.18072733 -105.52807133 148.44300154 -104.5546875 143.67578125 C-104.27954292 142.30411764 -104.0048154 140.93237031 -103.73046875 139.56054688 C-103.30208888 137.42678133 -102.8711316 135.29367306 -102.43310547 133.16186523 C-102.00744027 131.08466661 -101.59268959 129.0055294 -101.1796875 126.92578125 C-100.92944824 125.69255127 -100.67920898 124.45932129 -100.42138672 123.1887207 C-99.87618408 119.06305925 -100.13848579 117.13497815 -102.63671875 113.84375 C-103.31347656 113.0703125 -103.99023438 112.296875 -104.6875 111.5 C-114.22119069 99.81739156 -119.29707411 85.05432951 -120 70 C-120.0515625 69.35804688 -120.103125 68.71609375 -120.15625 68.0546875 C-121.06521871 48.13312324 -112.6618888 29.44784685 -100.1796875 14.375 C-74.25329215 -13.87454905 -32.79397501 -16.59054385 0 0 Z " fill="#06AE51" transform="translate(133,94)"/>
<path d="M0 0 C0.33 0.66 0.66 1.32 1 2 C13.21 2 25.42 2 38 2 C33.66641418 4.16679291 31.59314121 4.23437001 26.828125 4.1953125 C26.1457074 4.1924826 25.46328979 4.18965271 24.76019287 4.18673706 C22.58994693 4.17558098 20.42012029 4.15048557 18.25 4.125 C16.77474556 4.11496426 15.29948463 4.10583944 13.82421875 4.09765625 C10.21601058 4.07565687 6.60804625 4.04115883 3 4 C3.0220752 4.86689453 3.04415039 5.73378906 3.06689453 6.62695312 C3.1255453 9.87837785 3.13866906 13.12608455 3.12207031 16.37792969 C3.12400386 17.77845975 3.14350033 19.17908959 3.18164062 20.57910156 C3.48011231 32.20291542 3.48011231 32.20291542 -0.12158203 36.57592773 C-2.66011887 38.58133882 -5.2497399 40.30123121 -8 42 C-16.20116677 49.56774332 -21.21089643 58.08735825 -26 68 C-27.32 68 -28.64 68 -30 68 C-31.53515625 66.3125 -31.53515625 66.3125 -33.0625 64 C-37.19415169 58.36995961 -42.16006679 54.74572975 -48 51 C-48.98613281 50.36578125 -48.98613281 50.36578125 -49.9921875 49.71875 C-61.50164835 43.19836875 -76.73133729 42.31400493 -89.43359375 45.25 C-104.1297752 49.54477449 -116.33300871 58.06812779 -123.8125 71.6875 C-129.54091813 84.21234642 -130.40169421 97.36855776 -126.0703125 110.42578125 C-123.19570744 117.33952115 -119.64678785 123.76058848 -114.0625 128.8125 C-111.51708459 131.19240634 -111.05958225 131.65574698 -110.4375 135.25 C-111.17872602 140.19150678 -112.00808954 145.1024421 -113 150 C-111.25976562 149.09894531 -111.25976562 149.09894531 -109.484375 148.1796875 C-94.79332494 140.89961374 -94.79332494 140.89961374 -85.98046875 143.2578125 C-72.60318419 146.58898428 -58.94690055 143.10855609 -47.3125 136.3125 C-46.35988281 135.71050781 -45.40726562 135.10851562 -44.42578125 134.48828125 C-42 133 -42 133 -39 132 C-39 131.34 -39 130.68 -39 130 C-38.34 130 -37.68 130 -37 130 C-37.57805809 133.9018921 -39.355027 136.13461258 -42 139 C-44.375 140.625 -44.375 140.625 -47 142 C-47.969375 142.515625 -48.93875 143.03125 -49.9375 143.5625 C-55.27425247 146.06750626 -60.17378978 147.20032409 -66 148 C-66.33 148.33 -66.66 148.66 -67 149 C-69.6773138 149.09981214 -72.32304175 149.13879875 -75 149.125 C-75.75023437 149.12886719 -76.50046875 149.13273438 -77.2734375 149.13671875 C-82.87338947 149.12661053 -82.87338947 149.12661053 -84 148 C-92.18719148 146.21370368 -99.49619657 147.27677002 -106.6875 151.625 C-109.74553883 153.44329336 -112.48446987 153.72957461 -116 154 C-117 153 -117 153 -117.125 149.5625 C-117 146 -117 146 -116 144 C-115.92907158 141.7927077 -115.91584975 139.58332548 -115.9375 137.375 C-115.94652344 136.18648437 -115.95554687 134.99796875 -115.96484375 133.7734375 C-115.97644531 132.85820312 -115.98804687 131.94296875 -116 131 C-116.99 130.67 -117.98 130.34 -119 130 C-119 129.34 -119 128.68 -119 128 C-119.66 128 -120.32 128 -121 128 C-130.7246934 115.51787189 -134.65793597 100.75039175 -133 85 C-131.34271962 76.70428754 -128.28902704 68.69439709 -123 62 C-122.34 62 -121.68 62 -121 62 C-121 61.01 -121 60.02 -121 59 C-116.74130543 54.33202829 -111.28917913 50.42241002 -106 47 C-105.01 47 -104.02 47 -103 47 C-103 46.34 -103 45.68 -103 45 C-96.56049311 42.10961591 -91.03274959 40.55815473 -84 40 C-83.67 39.67 -83.34 39.34 -83 39 C-80.66839945 38.90090698 -78.33370058 38.87029496 -76 38.875 C-74.72125 38.87242188 -73.4425 38.86984375 -72.125 38.8671875 C-69 39 -69 39 -68 40 C-66.48530552 40.23192865 -64.96245438 40.41215238 -63.4375 40.5625 C-62.61121094 40.64628906 -61.78492187 40.73007813 -60.93359375 40.81640625 C-60.29550781 40.87699219 -59.65742187 40.93757813 -59 41 C-59 41.66 -59 42.32 -59 43 C-58.28714844 42.94328125 -57.57429688 42.8865625 -56.83984375 42.828125 C-47.94014563 43.36675872 -37.81495111 51.70046963 -32 58 C-31.34 58.99 -30.68 59.98 -30 61 C-27.84463127 61.20925082 -27.84463127 61.20925082 -26.0625 59.4375 C-23.58353914 56.50781898 -22.48499394 53.52686062 -21 50 C-18.9375 47.0625 -18.9375 47.0625 -17 45 C-16.34 45 -15.68 45 -15 45 C-14.773125 44.401875 -14.54625 43.80375 -14.3125 43.1875 C-13 41 -13 41 -10.6875 39.6875 C-7.51275233 37.69405379 -6.09663317 35.5461688 -4.11328125 32.42578125 C-3.74589844 31.95527344 -3.37851563 31.48476562 -3 31 C-2.34 31 -1.68 31 -1 31 C-1.00523682 30.13197754 -1.01047363 29.26395508 -1.01586914 28.36962891 C-1.03289862 25.15299727 -1.04544408 21.93638859 -1.05493164 18.71972656 C-1.0599643 17.32681523 -1.06679098 15.9339092 -1.07543945 14.54101562 C-1.08755152 12.54038754 -1.09270412 10.53972112 -1.09765625 8.5390625 C-1.10289307 7.33459473 -1.10812988 6.13012695 -1.11352539 4.88916016 C-1 2 -1 2 0 0 Z " fill="#06AE53" transform="translate(168,66)"/>
<path d="M0 0 C4.33663951 4.85499204 5.1704441 7.84187781 5.23828125 14.203125 C5.246353 14.91853455 5.25442474 15.63394409 5.26274109 16.37103271 C5.27657958 17.88746724 5.2873028 19.40393288 5.29516602 20.92041016 C5.31233257 23.22749894 5.35621124 25.53313682 5.40039062 27.83984375 C5.41052212 29.31509365 5.4190368 30.79035572 5.42578125 32.265625 C5.44328934 32.9502179 5.46079742 33.63481079 5.47883606 34.34014893 C5.45642014 39.34943262 4.09943082 42.12562136 1 46 C-13.93148914 58.76121456 -37.4223328 59.48045691 -56 59 C-55.67 58.34 -55.34 57.68 -55 57 C-51.9375 56.375 -51.9375 56.375 -49 56 C-49 55.67 -49 55.34 -49 55 C-48.0867395 54.93268677 -48.0867395 54.93268677 -47.1550293 54.86401367 C-32.83122011 53.77594076 -20.02395583 52.43320399 -7 46 C-6.05125 45.566875 -5.1025 45.13375 -4.125 44.6875 C-1.10705025 42.29089284 0.03441183 39.64202997 1 36 C1.40628482 31.61818899 1.37364078 27.27224489 1.3125 22.875 C1.31733398 21.12509766 1.31733398 21.12509766 1.32226562 19.33984375 C1.33710415 11.93617765 1.33710415 11.93617765 -1 5 C-3.15495726 3.18968703 -3.15495726 3.18968703 -5.75 1.8125 C-6.59046875 1.32394531 -7.4309375 0.83539063 -8.296875 0.33203125 C-13.14973907 -2.05933674 -18.18182155 -3.35741647 -23.4375 -4.5625 C-24.50871094 -4.81128906 -25.57992187 -5.06007813 -26.68359375 -5.31640625 C-34.29330552 -6.88495697 -41.62653696 -7.22702748 -49.375 -7.25 C-50.52589111 -7.25394775 -51.67678223 -7.25789551 -52.86254883 -7.26196289 C-61.02160581 -7.20664532 -68.57160046 -6.38344218 -76.51171875 -4.55859375 C-80.285769 -3.95423856 -83.26544031 -4.27609947 -87 -5 C-87 -5.66 -87 -6.32 -87 -7 C-84.8131784 -7.48225331 -82.62550745 -7.96065583 -80.4375 -8.4375 C-79.21933594 -8.70433594 -78.00117188 -8.97117187 -76.74609375 -9.24609375 C-52.53521693 -14.11856427 -21.21730298 -14.13507304 0 0 Z " fill="#024C8D" transform="translate(293,101)"/>
<path d="M0 0 C7.92 0 15.84 0 24 0 C24.33 30.69 24.66 61.38 25 93 C25.33 93 25.66 93 26 93 C26 123.36 26 153.72 26 185 C23.06286531 186.46856734 20.06356372 186.21750152 16.83984375 186.28125 C16.13477188 186.29965942 15.42970001 186.31806885 14.70326233 186.33703613 C11.68148147 186.41582102 8.6594767 186.48360015 5.63745117 186.55224609 C3.43396592 186.60385884 1.23067908 186.66114275 -0.97265625 186.71875 C-1.66118179 186.73232544 -2.34970734 186.74590088 -3.05909729 186.7598877 C-6.31157758 186.57649 -6.31157758 186.57649 -9 188 C-9 193.28 -9 198.56 -9 204 C7.5 204 24 204 41 204 C40.67 204.66 40.34 205.32 40 206 C37.04601242 206.98466253 35.14750978 207.12127836 32.06958008 207.11352539 C31.06876907 207.11344986 30.06795807 207.11337433 29.03681946 207.11329651 C27.95861435 207.10813522 26.88040924 207.10297394 25.76953125 207.09765625 C24.11119514 207.09553383 24.11119514 207.09553383 22.4193573 207.09336853 C18.88371083 207.08776514 15.34812738 207.07521204 11.8125 207.0625 C9.41731862 207.05748544 7.02213625 207.05292246 4.62695312 207.04882812 C-1.24871947 207.03779461 -7.12435523 207.02105316 -13 207 C-13.02887236 203.18751574 -13.04675492 199.3750593 -13.0625 195.5625 C-13.07087891 194.47388672 -13.07925781 193.38527344 -13.08789062 192.26367188 C-13.09111328 191.22919922 -13.09433594 190.19472656 -13.09765625 189.12890625 C-13.10289307 188.17056885 -13.10812988 187.21223145 -13.11352539 186.22485352 C-13 184 -13 184 -12 183 C-0.39995795 181.71110644 11.3285724 182 23 182 C22.67 122.6 22.34 63.2 22 2 C15.4 2 8.8 2 2 2 C1.34 1.34 0.68 0.68 0 0 Z " fill="#003C93" transform="translate(296,68)"/>
<path d="M0 0 C0.495 0.99 0.495 0.99 1 2 C13.21 2 25.42 2 38 2 C33.66641418 4.16679291 31.59314121 4.23437001 26.828125 4.1953125 C26.1457074 4.1924826 25.46328979 4.18965271 24.76019287 4.18673706 C22.58994693 4.17558098 20.42012029 4.15048557 18.25 4.125 C16.77474556 4.11496426 15.29948463 4.10583944 13.82421875 4.09765625 C10.21601058 4.07565687 6.60804625 4.04115883 3 4 C3.0220752 4.86689453 3.04415039 5.73378906 3.06689453 6.62695312 C3.1255453 9.87837785 3.13866906 13.12608455 3.12207031 16.37792969 C3.12400386 17.77845975 3.14350033 19.17908959 3.18164062 20.57910156 C3.48011231 32.20291542 3.48011231 32.20291542 -0.12158203 36.57592773 C-2.66011887 38.58133882 -5.2497399 40.30123121 -8 42 C-16.20116677 49.56774332 -21.21089643 58.08735825 -26 68 C-27.32 68 -28.64 68 -30 68 C-31.53515625 66.3125 -31.53515625 66.3125 -33.0625 64 C-41.29537317 52.78138527 -53.03905979 47.26717724 -66.33984375 44.80859375 C-67.21769531 44.54175781 -68.09554687 44.27492187 -69 44 C-69.495 42.515 -69.495 42.515 -70 41 C-66.37 41 -62.74 41 -59 41 C-59 41.66 -59 42.32 -59 43 C-58.28714844 42.94328125 -57.57429688 42.8865625 -56.83984375 42.828125 C-47.94014563 43.36675872 -37.81495111 51.70046963 -32 58 C-31.34 58.99 -30.68 59.98 -30 61 C-27.84463127 61.20925082 -27.84463127 61.20925082 -26.0625 59.4375 C-23.58353914 56.50781898 -22.48499394 53.52686062 -21 50 C-18.9375 47.0625 -18.9375 47.0625 -17 45 C-16.34 45 -15.68 45 -15 45 C-14.773125 44.401875 -14.54625 43.80375 -14.3125 43.1875 C-13 41 -13 41 -10.6875 39.6875 C-7.51275233 37.69405379 -6.09663317 35.5461688 -4.11328125 32.42578125 C-3.74589844 31.95527344 -3.37851563 31.48476562 -3 31 C-2.34 31 -1.68 31 -1 31 C-1.00523682 30.13197754 -1.01047363 29.26395508 -1.01586914 28.36962891 C-1.03289862 25.15299727 -1.04544408 21.93638859 -1.05493164 18.71972656 C-1.0599643 17.32681523 -1.06679098 15.9339092 -1.07543945 14.54101562 C-1.08755152 12.54038754 -1.09270412 10.53972112 -1.09765625 8.5390625 C-1.10289307 7.33459473 -1.10812988 6.13012695 -1.11352539 4.88916016 C-1 2 -1 2 0 0 Z " fill="#07A55E" transform="translate(168,66)"/>
<path d="M0 0 C0.99 0 1.98 0 3 0 C3.20455552 4.49932223 3.32806276 8.99743915 3.4375 13.5 C3.52547852 15.40265625 3.52547852 15.40265625 3.61523438 17.34375 C3.80865221 27.95409977 3.80865221 27.95409977 -0.25 32.734375 C-12.9177578 45.09299554 -34.24059395 46.17316672 -50.875 46.25 C-52.58429688 46.2809375 -52.58429688 46.2809375 -54.328125 46.3125 C-55.41351563 46.31765625 -56.49890625 46.3228125 -57.6171875 46.328125 C-59.09614502 46.34214355 -59.09614502 46.34214355 -60.60498047 46.35644531 C-61.39533691 46.23881836 -62.18569336 46.12119141 -63 46 C-63.66 45.01 -64.32 44.02 -65 43 C-64.24082275 42.98541748 -63.48164551 42.97083496 -62.69946289 42.95581055 C-32.06415404 43.55369364 -32.06415404 43.55369364 -4.875 31.5 C-0.97932244 26.30576326 -0.6277549 21.46951252 -0.375 15.1875 C-0.33632813 14.39923828 -0.29765625 13.61097656 -0.2578125 12.79882812 C-0.16411156 10.8662462 -0.08099221 8.93315624 0 7 C-0.94617188 7.61488281 -1.89234375 8.22976562 -2.8671875 8.86328125 C-16.12281618 17.10372519 -29.41140477 19.9306624 -45 19 C-45.66402832 18.96326172 -46.32805664 18.92652344 -47.01220703 18.88867188 C-51.6775949 18.62896838 -56.33890808 18.32750458 -61 18 C-60.67 17.34 -60.34 16.68 -60 16 C-58.20369141 16.03480469 -58.20369141 16.03480469 -56.37109375 16.0703125 C-37.9551259 16.3232373 -16.67398311 15.81784682 -2 3 C-1.34 2.01 -0.68 1.02 0 0 Z " fill="#015386" transform="translate(295,185)"/>
<path d="M0 0 C2.80183432 1.34435061 4.70740287 2.59217753 6.875 4.8125 C16.49505124 13.15123364 30.85884764 14.3068461 43 16 C43 16.66 43 17.32 43 18 C44.13179687 17.97679687 45.26359375 17.95359375 46.4296875 17.9296875 C47.91145175 17.91093099 49.39322312 17.89273066 50.875 17.875 C51.62136719 17.85824219 52.36773437 17.84148437 53.13671875 17.82421875 C55.09194461 17.8066041 57.04742021 17.89679811 59 18 C59.66 18.66 60.32 19.32 61 20 C41.25464058 21.07376577 21.41164394 18.63197324 4 9 C4.33 15.93 4.66 22.86 5 30 C7.475 30.99 7.475 30.99 10 32 C10 32.66 10 33.32 10 34 C10.99 34 11.98 34 13 34 C13 34.66 13 35.32 13 36 C13.825 36.103125 14.65 36.20625 15.5 36.3125 C18.76272031 36.95339149 21.55536818 38.01297687 24.6328125 39.234375 C29.29015875 40.74071141 34.16499701 41.31504124 39 42 C39.33 42.99 39.66 43.98 40 45 C26.92315777 45.44041178 12.41364481 41.23447461 2.71875 32.203125 C-1.70682483 26.84194207 -0.63395565 20.13930957 -0.375 13.5625 C-0.34792969 12.25861328 -0.32085937 10.95472656 -0.29296875 9.61132812 C-0.22251848 6.40584103 -0.12404217 3.20378663 0 0 Z " fill="#048270" transform="translate(191,185)"/>
<path d="M0 0 C2.67962901 1.2251331 4.05582294 2.06258935 6.0625 4.3125 C15.02028966 12.50792458 28.28754181 14.63808626 40 16 C40 16.66 40 17.32 40 18 C46.6 18.33 53.2 18.66 60 19 C60 19.33 60 19.66 60 20 C50.8791333 20.21021204 41.89429511 20.06372826 32.8125 19.125 C32.02383545 19.04652832 31.2351709 18.96805664 30.42260742 18.88720703 C26.04526635 18.39838596 22.14714907 17.57419694 18 16 C18 15.34 18 14.68 18 14 C17.32453125 13.80664062 16.6490625 13.61328125 15.953125 13.4140625 C15.06109375 13.15367187 14.1690625 12.89328125 13.25 12.625 C12.36828125 12.36976563 11.4865625 12.11453125 10.578125 11.8515625 C8.23919428 11.0790066 6.16557438 10.16374324 4 9 C3.97296438 11.58340384 3.95314389 14.16652308 3.9375 16.75 C3.92912109 17.47960937 3.92074219 18.20921875 3.91210938 18.9609375 C3.88208995 24.06593232 3.88208995 24.06593232 5 29 C5.66 29.33 6.32 29.66 7 30 C7 30.66 7 31.32 7 32 C7.99 32.33 8.98 32.66 10 33 C10 33.66 10 34.32 10 35 C11.98 35.33 13.96 35.66 16 36 C16 36.66 16 37.32 16 38 C16.928125 37.95875 17.85625 37.9175 18.8125 37.875 C22 38 22 38 25 40 C26.98552839 40.52770178 26.98552839 40.52770178 29.17578125 40.81640625 C29.99788086 40.94039795 30.81998047 41.06438965 31.66699219 41.19213867 C32.54000977 41.31435791 33.41302734 41.43657715 34.3125 41.5625 C35.64716309 41.75646362 35.64716309 41.75646362 37.00878906 41.9543457 C44.32565534 42.98315661 51.61761417 43.6455477 59 44 C59 44.33 59 44.66 59 45 C40.58682607 46.56587442 21.85607833 46.2806116 5.875 35.4375 C0.17544238 30.60526637 0.17544238 30.60526637 -0.34057617 25.88378906 C-0.32486572 24.68979492 -0.30915527 23.49580078 -0.29296875 22.265625 C-0.28330078 20.97011719 -0.27363281 19.67460937 -0.26367188 18.33984375 C-0.23860783 16.97655646 -0.21321302 15.61327521 -0.1875 14.25 C-0.17244518 12.87110816 -0.15875817 11.49220065 -0.14648438 10.11328125 C-0.11111909 6.74179085 -0.06175904 3.37109346 0 0 Z " fill="#02756C" transform="translate(191,149)"/>
<path d="M0 0 C0.59167969 0.21527344 1.18335938 0.43054688 1.79296875 0.65234375 C1.78136719 1.6165625 1.76976562 2.58078125 1.7578125 3.57421875 C1.74878906 4.8375 1.73976562 6.10078125 1.73046875 7.40234375 C1.71886719 8.6553125 1.70726562 9.90828125 1.6953125 11.19921875 C1.77275848 13.93770876 1.9651606 16.07114668 2.79296875 18.65234375 C3.45296875 18.65234375 4.11296875 18.65234375 4.79296875 18.65234375 C4.79296875 19.31234375 4.79296875 19.97234375 4.79296875 20.65234375 C5.99953125 21.08546875 5.99953125 21.08546875 7.23046875 21.52734375 C9.79296875 22.65234375 9.79296875 22.65234375 10.79296875 24.65234375 C5.73786319 24.20630502 3.39130137 22.00533551 -0.20703125 18.65234375 C-1.62337958 15.81964709 -1.55333175 13.17767937 -1.76953125 10.02734375 C-1.85332031 8.83882812 -1.93710938 7.6503125 -2.0234375 6.42578125 C-2.08402344 5.51054687 -2.14460938 4.5953125 -2.20703125 3.65234375 C-2.66078125 4.14734375 -3.11453125 4.64234375 -3.58203125 5.15234375 C-5.20703125 6.65234375 -5.20703125 6.65234375 -7.20703125 6.65234375 C-7.20703125 7.31234375 -7.20703125 7.97234375 -7.20703125 8.65234375 C-7.92890625 9.35359375 -8.65078125 10.05484375 -9.39453125 10.77734375 C-18.11993259 19.25556658 -19.99478284 29.75314722 -21.58203125 41.33984375 C-23.29814635 53.49528471 -26.46785069 64.20238875 -32.64453125 74.90234375 C-33.18327881 75.85137573 -33.18327881 75.85137573 -33.73291016 76.81958008 C-36.32207154 81.04154074 -38.74357302 82.68108169 -43.20703125 84.65234375 C-45.22616643 86.35001028 -45.22616643 86.35001028 -46.89453125 88.21484375 C-48.97379055 90.43750024 -50.63445912 91.93729567 -53.20703125 93.65234375 C-54.19703125 93.32234375 -55.18703125 92.99234375 -56.20703125 92.65234375 C-55.68753906 92.27722656 -55.16804687 91.90210938 -54.6328125 91.515625 C-51.33645879 89.09667413 -48.1602112 86.74141222 -45.33203125 83.77734375 C-44.63078125 83.07609375 -43.92953125 82.37484375 -43.20703125 81.65234375 C-42.54703125 81.65234375 -41.88703125 81.65234375 -41.20703125 81.65234375 C-41.03300781 80.78802734 -41.03300781 80.78802734 -40.85546875 79.90625 C-40.15674666 77.47755936 -39.18540808 75.71833641 -37.83203125 73.58984375 C-37.41179687 72.91824219 -36.9915625 72.24664062 -36.55859375 71.5546875 C-35.20703125 69.65234375 -35.20703125 69.65234375 -33.703125 68.27734375 C-27.5876808 61.63498138 -26.30140712 50.27732585 -25.20703125 41.65234375 C-22.1443609 19.4051063 -22.1443609 19.4051063 -19.20703125 14.65234375 C-18.21703125 14.32234375 -17.22703125 13.99234375 -16.20703125 13.65234375 C-14.5622545 11.99187374 -14.5622545 11.99187374 -12.95703125 9.96484375 C-10.59082915 7.19343579 -8.20807515 4.55289687 -5.51953125 2.08984375 C-4.70935547 1.34541016 -4.70935547 1.34541016 -3.8828125 0.5859375 C-2.20703125 -0.34765625 -2.20703125 -0.34765625 0 0 Z " fill="#099B6F" transform="translate(192.20703125,125.34765625)"/>
<path d="M0 0 C0.99 0.495 0.99 0.495 2 1 C2.20466631 5.33262826 2.32809533 9.66400284 2.4375 14 C2.52547852 15.83111328 2.52547852 15.83111328 2.61523438 17.69921875 C2.72764126 23.64072574 2.77265034 27.9682574 -1.140625 32.66796875 C-14.12910615 44.99496148 -34.07578748 46.18851075 -51 46.0625 C-52.15628906 46.05798828 -53.31257812 46.05347656 -54.50390625 46.04882812 C-57.33599225 46.03712529 -60.16796811 46.02072996 -63 46 C-63 45.67 -63 45.34 -63 45 C-61.19402344 44.90912109 -61.19402344 44.90912109 -59.3515625 44.81640625 C-57.77602923 44.73200268 -56.20050904 44.64735459 -54.625 44.5625 C-53.8309375 44.52318359 -53.036875 44.48386719 -52.21875 44.44335938 C-47.97398779 44.31106596 -47.97398779 44.31106596 -44 43 C-41.45384991 42.76827173 -38.92603775 42.58105471 -36.375 42.4375 C-35.66859375 42.39431641 -34.9621875 42.35113281 -34.234375 42.30664062 C-32.48981463 42.20055249 -30.74493303 42.09977111 -29 42 C-29 41.34 -29 40.68 -29 40 C-28.40832031 39.93941406 -27.81664062 39.87882812 -27.20703125 39.81640625 C-23.09021792 39.37987629 -19.04455467 38.91328654 -15 38 C-15 37.34 -15 36.68 -15 36 C-14.39671875 35.70867187 -13.7934375 35.41734375 -13.171875 35.1171875 C-12.37265625 34.70726562 -11.5734375 34.29734375 -10.75 33.875 C-9.96109375 33.48054688 -9.1721875 33.08609375 -8.359375 32.6796875 C-4.74052397 30.10335316 -2.42754775 27.29072871 -1.59472656 22.82861328 C-1.38584545 20.42148333 -1.29237959 18.04063676 -1.25 15.625 C-1.20552734 14.37783203 -1.20552734 14.37783203 -1.16015625 13.10546875 C-1.08999601 11.07082173 -1.04267105 9.03540909 -1 7 C-1.66 7 -2.32 7 -3 7 C-3.33 7.99 -3.66 8.98 -4 10 C-6.33378373 11.16689187 -8.5635593 12.09331748 -11 13 C-11.84433594 13.34417969 -12.68867188 13.68835938 -13.55859375 14.04296875 C-19.73114358 16.46821173 -25.37514917 17.71258782 -32 18 C-32 17.01 -32 16.02 -32 15 C-30.96101563 14.76925781 -29.92203125 14.53851563 -28.8515625 14.30078125 C-13.44943233 11.048369 -13.44943233 11.048369 -2 1 C-1.34 0.67 -0.68 0.34 0 0 Z " fill="#014A8E" transform="translate(296,149)"/>
<path d="M0 0 C-0.6290625 0.47308594 -1.258125 0.94617188 -1.90625 1.43359375 C-15.5692771 11.96375303 -15.5692771 11.96375303 -23 27 C-23.66 27 -24.32 27 -25 27 C-25.12117188 27.72445312 -25.24234375 28.44890625 -25.3671875 29.1953125 C-25.53476563 30.16210938 -25.70234375 31.12890625 -25.875 32.125 C-26.03742188 33.07632813 -26.19984375 34.02765625 -26.3671875 35.0078125 C-27 38 -27 38 -28.0390625 40.83984375 C-29.22889292 44.75274134 -29.37776782 48.37148257 -29.5 52.4375 C-29.88344734 65.12509581 -33.78511579 77.93659334 -43 87 C-43.78375 87.804375 -44.5675 88.60875 -45.375 89.4375 C-45.91125 89.953125 -46.4475 90.46875 -47 91 C-47.66 90.67 -48.32 90.34 -49 90 C-46.93416684 85.62996832 -44.8257785 81.67309857 -42 77.75 C-36.06852783 68.88259814 -34.63341021 59.34203663 -33 49 C-29.93499233 29.64485289 -23.52299604 14.0133229 -7.83203125 1.234375 C-5.05050974 -0.63974183 -3.08292716 -1.54146358 0 0 Z " fill="#08A162" transform="translate(179,109)"/>
<path d="M0 0 C12.21 0 24.42 0 37 0 C37.020625 3.774375 37.04125 7.54875 37.0625 11.4375 C37.071604 12.62915771 37.08070801 13.82081543 37.09008789 15.04858398 C37.09258545 15.98001221 37.09508301 16.91144043 37.09765625 17.87109375 C37.10289307 18.82943115 37.10812988 19.78776855 37.11352539 20.77514648 C37 23 37 23 36 24 C34.4363997 24.11414307 32.86771299 24.15957782 31.30004883 24.17700195 C29.79762383 24.19625481 29.79762383 24.19625481 28.2648468 24.21589661 C27.17326767 24.22328354 26.08168854 24.23067047 24.95703125 24.23828125 C23.84067795 24.246353 22.72432465 24.25442474 21.57414246 24.26274109 C19.20431074 24.27660386 16.83445887 24.28731615 14.46459961 24.29516602 C10.84515226 24.31234502 7.22662596 24.35620884 3.60742188 24.40039062 C1.3072984 24.41051997 -0.99283286 24.41903532 -3.29296875 24.42578125 C-4.37442673 24.44328934 -5.4558847 24.46079742 -6.57011414 24.47883606 C-12.69797417 24.4612148 -16.31400861 24.07672677 -21 20 C-20.01 18.515 -20.01 18.515 -19 17 C-18.44213806 17.48608231 -17.88427612 17.97216461 -17.30950928 18.47297668 C-14.62572303 20.24746801 -13.23289568 20.39132866 -10.04785156 20.43237305 C-9.06713684 20.45216721 -8.08642212 20.47196136 -7.07598877 20.49235535 C-5.4992337 20.50194023 -5.4992337 20.50194023 -3.890625 20.51171875 C-2.26770538 20.53864555 -2.26770538 20.53864555 -0.61199951 20.56611633 C2.84196074 20.62027636 6.29578235 20.65413403 9.75 20.6875 C12.09246723 20.72066796 14.43491616 20.75515713 16.77734375 20.79101562 C22.51812922 20.87600647 28.25887316 20.94279102 34 21 C34 14.73 34 8.46 34 2 C32.576875 2.165 31.15375 2.33 29.6875 2.5 C24.14018654 3.00693465 18.62840594 3.11227914 13.0625 3.125 C12.23387451 3.12951172 11.40524902 3.13402344 10.55151367 3.13867188 C9.76236572 3.13673828 8.97321777 3.13480469 8.16015625 3.1328125 C7.45511963 3.13168457 6.75008301 3.13055664 6.02368164 3.12939453 C3.91158881 2.99434697 2.03301347 2.57450388 0 2 C0 1.34 0 0.68 0 0 Z " fill="#078C70" transform="translate(169,252)"/>
<path d="M0 0 C1.0176796 -0.00315216 2.03535919 -0.00630432 3.08387756 -0.009552 C4.18598068 -0.00752777 5.2880838 -0.00550354 6.42358398 -0.00341797 C7.55038071 -0.00437469 8.67717743 -0.00533142 9.83811951 -0.00631714 C12.22297217 -0.0069985 14.60782667 -0.00514728 16.99267578 -0.00097656 C20.65783825 0.00437724 24.32287845 -0.00092563 27.98803711 -0.00732422 C30.29988634 -0.00666353 32.61173549 -0.00538255 34.92358398 -0.00341797 C36.02771133 -0.0054422 37.13183868 -0.00746643 38.26942444 -0.009552 C39.79121559 -0.00482376 39.79121559 -0.00482376 41.34375 0 C42.2415065 0.00079559 43.139263 0.00159119 44.06422424 0.00241089 C46.10717773 0.12939453 46.10717773 0.12939453 47.10717773 1.12939453 C47.19431605 2.83711811 47.21417781 4.54838102 47.20483398 6.25830078 C47.20233643 7.189729 47.19983887 8.12115723 47.19726562 9.08081055 C47.18816162 10.27246826 47.17905762 11.46412598 47.16967773 12.69189453 C47.14905273 16.46626953 47.12842773 20.24064453 47.10717773 24.12939453 C35.22717773 24.12939453 23.34717773 24.12939453 11.10717773 24.12939453 C11.10717773 23.79939453 11.10717773 23.46939453 11.10717773 23.12939453 C21.99717773 23.12939453 32.88717773 23.12939453 44.10717773 23.12939453 C44.10717773 16.52939453 44.10717773 9.92939453 44.10717773 3.12939453 C37.23810992 3.1488202 30.37032222 3.20055736 23.50170898 3.28198242 C21.16616799 3.3051499 18.83052271 3.31955517 16.49487305 3.32495117 C13.13321026 3.33424939 9.77318503 3.3752622 6.41186523 3.42236328 C5.37101776 3.41843063 4.33017029 3.41449799 3.25778198 3.41044617 C-3.16790516 3.53803499 -3.16790516 3.53803499 -8.59936523 6.67358398 C-9.73462646 7.88921021 -9.73462646 7.88921021 -10.89282227 9.12939453 C-11.22282227 8.13939453 -11.55282227 7.14939453 -11.89282227 6.12939453 C-5.92570388 0.00524672 -5.92570388 0.00524672 0 0 Z " fill="#008762" transform="translate(158.892822265625,43.87060546875)"/>
<path d="M0 0 C0.66 0 1.32 0 2 0 C1.90786673 6.37234102 1.8005798 12.74429602 1.68261719 19.11621094 C1.64427009 21.28509693 1.60942745 23.45404777 1.578125 25.62304688 C1.53259862 28.73591332 1.47458427 31.84833106 1.4140625 34.9609375 C1.39673569 36.42193375 1.39673569 36.42193375 1.37905884 37.91244507 C1.35918915 38.81322784 1.33931946 39.71401062 1.31884766 40.64208984 C1.30552399 41.43706879 1.29220032 42.23204773 1.2784729 43.05111694 C1 45 1 45 -1 47 C-1.33 35.12 -1.66 23.24 -2 11 C-5.63 14.3 -9.26 17.6 -13 21 C-18 25 -18 25 -20 25 C-20 37.21 -20 49.42 -20 62 C-20.33 62 -20.66 62 -21 62 C-21 50.78 -21 39.56 -21 28 C-21.66 28 -22.32 28 -23 28 C-22.70731386 24.1219086 -20.56543558 22.44134934 -17.74536133 19.98925781 C-17.16939209 19.49780273 -16.59342285 19.00634766 -16 18.5 C-10.36822921 13.5398798 -5.96614862 8.36659726 -1.70703125 2.203125 C-0.86205078 1.11257812 -0.86205078 1.11257812 0 0 Z " fill="#129B65" transform="translate(168,205)"/>
<path d="M0 0 C0.72256485 0.00141495 1.4451297 0.0028299 2.18959045 0.00428772 C4.4714899 0.009834 6.75328704 0.02237605 9.03515625 0.03515625 C10.59309753 0.04017821 12.15104037 0.04473989 13.70898438 0.04882812 C17.50524706 0.05978575 21.30143438 0.07701253 25.09765625 0.09765625 C25.09765625 0.75765625 25.09765625 1.41765625 25.09765625 2.09765625 C27.40765625 2.42765625 29.71765625 2.75765625 32.09765625 3.09765625 C28.92242041 5.25681662 26.9995506 4.95707141 23.33911133 4.37084961 C18.49213813 3.78009011 13.59914533 3.86211399 8.72265625 3.84765625 C7.57176514 3.8437085 6.42087402 3.83976074 5.23510742 3.83569336 C-2.92394956 3.89101093 -10.47394421 4.71421407 -18.4140625 6.5390625 C-22.18811275 7.14341769 -25.16778406 6.82155678 -28.90234375 6.09765625 C-28.90234375 5.43765625 -28.90234375 4.77765625 -28.90234375 4.09765625 C-26.71552215 3.61540294 -24.5278512 3.13700042 -22.33984375 2.66015625 C-21.12167969 2.39332031 -19.90351563 2.12648438 -18.6484375 1.8515625 C-12.39133168 0.5923118 -6.37910396 -0.04801532 0 0 Z " fill="#025D7A" transform="translate(234.90234375,89.90234375)"/>
<path d="M0 0 C0.66 0.33 1.32 0.66 2 1 C1.02659668 1.74330566 0.05319336 2.48661133 -0.94970703 3.25244141 C-4.69679199 7.02761195 -4.73538895 10.45709123 -4.83224487 15.60800171 C-4.82315094 16.71447052 -4.81405701 17.82093933 -4.8046875 18.9609375 C-4.81839386 20.10664215 -4.83210022 21.2523468 -4.84622192 22.43276978 C-4.88351652 26.08057948 -4.87980692 29.72702672 -4.875 33.375 C-4.89312692 35.85288586 -4.91392958 38.33075369 -4.9375 40.80859375 C-4.98934622 46.87252932 -5.00756043 52.93586314 -5 59 C-7.475 59.495 -7.475 59.495 -10 60 C-9.67 59.01 -9.34 58.02 -9 57 C-8.92260381 55.40993356 -8.9027885 53.81672774 -8.91821289 52.22485352 C-8.9247438 51.25697403 -8.93127472 50.28909454 -8.93800354 49.29188538 C-8.94943893 48.24810226 -8.96087433 47.20431915 -8.97265625 46.12890625 C-8.98530159 43.92382969 -8.99766262 41.71875148 -9.00976562 39.51367188 C-9.03460423 36.03306986 -9.06259532 32.55255274 -9.09594727 29.07202148 C-9.12611769 25.71597748 -9.14391447 22.36004247 -9.16015625 19.00390625 C-9.17361588 17.96214737 -9.1870755 16.92038849 -9.20094299 15.84706116 C-9.20432175 14.87602951 -9.2077005 13.90499786 -9.21118164 12.90454102 C-9.21863907 12.05199234 -9.2260965 11.19944366 -9.23377991 10.32106018 C-8.97586678 7.76039572 -8.36400387 6.17150648 -7 4 C-5.0625 2.875 -5.0625 2.875 -3 2 C-2.01 1.34 -1.02 0.68 0 0 Z " fill="#0CAC64" transform="translate(154,47)"/>
<path d="M0 0 C0.99 0.33 1.98 0.66 3 1 C-8.9142505 13.98868191 -24.0946211 24.6217283 -42 27 C-42 26.34 -42 25.68 -42 25 C-43.65 25 -45.3 25 -47 25 C-46.67 24.34 -46.34 23.68 -46 23 C-43.85362376 22.43687107 -41.68037649 21.97481479 -39.5 21.5625 C-33.79389278 20.41894477 -28.46679006 18.97935502 -23 17 C-23 16.34 -23 15.68 -23 15 C-15.46280992 11.16528926 -15.46280992 11.16528926 -11.5 9.75 C-6.73332717 7.36666359 -3.5668097 3.90032957 0 0 Z " fill="#07A45C" transform="translate(150,208)"/>
<path d="M0 0 C0.969375 0.309375 1.93875 0.61875 2.9375 0.9375 C6.63057718 2.00773869 10.25830889 2.43142364 14.08203125 2.75390625 C16 3 16 3 18 4 C20.40086838 4.2950612 22.78686496 4.54275955 25.1953125 4.75390625 C26.25647781 4.85166603 26.25647781 4.85166603 27.33908081 4.95140076 C29.6007277 5.15887884 31.86283544 5.36075234 34.125 5.5625 C35.6575857 5.70210539 37.19013829 5.8420748 38.72265625 5.98242188 C42.4813995 6.32584124 46.2405656 6.66423469 50 7 C50 7.33 50 7.66 50 8 C44.66863002 8.37460065 39.33645186 8.70667526 34 9 C33.01515625 9.05671875 32.0303125 9.1134375 31.015625 9.171875 C19.83784956 9.51059547 8.94480316 7.05963669 -1 2 C-0.67 1.34 -0.34 0.68 0 0 Z " fill="#026B79" transform="translate(204,150)"/>
<path d="M0 0 C2.64 0.66 5.28 1.32 8 2 C8 2.66 8 3.32 8 4 C8.928125 3.95875 9.85625 3.9175 10.8125 3.875 C14 4 14 4 17 6 C18.98552839 6.52770178 18.98552839 6.52770178 21.17578125 6.81640625 C21.99788086 6.94039795 22.81998047 7.06438965 23.66699219 7.19213867 C24.54000977 7.31435791 25.41302734 7.43657715 26.3125 7.5625 C27.64716309 7.75646362 27.64716309 7.75646362 29.00878906 7.9543457 C36.32565534 8.98315661 43.61761417 9.6455477 51 10 C51 10.33 51 10.66 51 11 C34.14682803 12.43321032 17.31541475 12.52735238 2 4 C0.6484375 1.83984375 0.6484375 1.83984375 0 0 Z " fill="#00606C" transform="translate(199,183)"/>
<path d="M0 0 C0.67200439 0.48662109 1.34400879 0.97324219 2.03637695 1.47460938 C5.70997309 3.36542647 8.29692961 3.38380453 12.41796875 3.40625 C13.46565178 3.42250427 13.46565178 3.42250427 14.53450012 3.43908691 C17.5069027 3.48481011 20.47921264 3.4964872 23.4519043 3.51123047 C25.62841214 3.52687686 27.80418139 3.55984668 29.98046875 3.59375 C31.92796021 3.60438477 31.92796021 3.60438477 33.91479492 3.61523438 C35.44197144 3.80569336 35.44197144 3.80569336 37 4 C37.66 4.99 38.32 5.98 39 7 C34.26780238 7.09927153 29.53621787 7.17165633 24.80322266 7.21972656 C23.19504226 7.23977627 21.58693417 7.26702364 19.97900391 7.30175781 C17.6602998 7.35057264 15.34256375 7.37303428 13.0234375 7.390625 C12.31069672 7.41127014 11.59795593 7.43191528 10.86361694 7.45318604 C5.56347934 7.45554001 3.02038054 6.17890554 -1 3 C-0.67 2.01 -0.34 1.02 0 0 Z " fill="#008B5C" transform="translate(149,269)"/>
<path d="M0 0 C0.6953125 1.57421875 0.6953125 1.57421875 1 4 C0.05647725 6.40569 -0.91860202 8.54666416 -2.125 10.8125 C-2.44903809 11.43543945 -2.77307617 12.05837891 -3.10693359 12.70019531 C-9.32347357 24.45656136 -9.32347357 24.45656136 -16 27 C-17.88352471 28.70017275 -19.61754642 30.49204052 -21.3515625 32.34375 C-23 34 -23 34 -26 36 C-26.99 35.67 -27.98 35.34 -29 35 C-28.48050781 34.62488281 -27.96101562 34.24976563 -27.42578125 33.86328125 C-24.12942754 31.44433038 -20.95317995 29.08906847 -18.125 26.125 C-17.42375 25.42375 -16.7225 24.7225 -16 24 C-15.34 24 -14.68 24 -14 24 C-13.88398438 23.42378906 -13.76796875 22.84757812 -13.6484375 22.25390625 C-12.94971541 19.82521561 -11.97837683 18.06599266 -10.625 15.9375 C-9.99464844 14.93009766 -9.99464844 14.93009766 -9.3515625 13.90234375 C-8 12 -8 12 -6.44140625 10.484375 C-4.84518696 8.84057193 -4.15229766 7.43198933 -3.3125 5.3125 C-2.879375 4.219375 -2.44625 3.12625 -2 2 C-1.34 2 -0.68 2 0 2 C0 1.34 0 0.68 0 0 Z " fill="#0C9A6C" transform="translate(165,183)"/>
<path d="M0 0 C0.66 0.66 1.32 1.32 2 2 C2.99 2.33 3.98 2.66 5 3 C4.67 3.33 4.34 3.66 4 4 C3.76284045 6.86055414 3.57809383 9.69727656 3.4375 12.5625 C3.293125 15.346875 3.14875 18.13125 3 21 C14.22 21 25.44 21 37 21 C37 21.33 37 21.66 37 22 C29.08 22.33 21.16 22.66 13 23 C13 23.33 13 23.66 13 24 C8.71 24 4.42 24 0 24 C0 16.08 0 8.16 0 0 Z " fill="#004E8A" transform="translate(283,45)"/>
<path d="M0 0 C0.99 0.33 1.98 0.66 3 1 C2.7525 1.5775 2.505 2.155 2.25 2.75 C2.1675 3.4925 2.085 4.235 2 5 C3.85432087 7.27144074 3.85432087 7.27144074 6 9 C5.34 9 4.68 9 4 9 C3.97296438 11.58340384 3.95314389 14.16652308 3.9375 16.75 C3.92912109 17.47960937 3.92074219 18.20921875 3.91210938 18.9609375 C3.88208995 24.06593232 3.88208995 24.06593232 5 29 C5.66 29.33 6.32 29.66 7 30 C7 30.66 7 31.32 7 32 C7.99 32.33 8.98 32.66 10 33 C9.01 33.495 9.01 33.495 8 34 C7.67 34.66 7.34 35.32 7 36 C0 29 0 29 -0.22705078 26.11083984 C-0.21657715 24.90637207 -0.20610352 23.7019043 -0.1953125 22.4609375 C-0.18564453 20.50800781 -0.18564453 20.50800781 -0.17578125 18.515625 C-0.15906929 17.13541405 -0.14213939 15.75520571 -0.125 14.375 C-0.11497006 12.98698548 -0.10584423 11.59896411 -0.09765625 10.2109375 C-0.07401863 6.80711974 -0.04106867 3.40364494 0 0 Z " fill="#008767" transform="translate(191,149)"/>
<path d="M0 0 C0.33 0 0.66 0 1 0 C1.09935088 4.30495015 1.17169268 8.60928183 1.21972656 12.91503906 C1.23976332 14.37772252 1.26700104 15.84032666 1.30175781 17.30273438 C1.35063225 19.4129601 1.37304659 21.52212136 1.390625 23.6328125 C1.41157227 24.90012207 1.43251953 26.16743164 1.45410156 27.47314453 C0.9190167 31.62897028 -0.38859749 33.76518736 -3 37 C-3.99 37.495 -3.99 37.495 -5 38 C-5.14388039 34.90657159 -5.22695112 32.54702357 -4.02954102 29.66088867 C-2.88846629 26.71173681 -2.61147056 24.26326963 -2.40234375 21.11328125 C-2.32306641 20.01048828 -2.24378906 18.90769531 -2.16210938 17.77148438 C-2.08798828 16.63001953 -2.01386719 15.48855469 -1.9375 14.3125 C-1.78362969 12.0375084 -1.62625767 9.76275006 -1.46484375 7.48828125 C-1.399021 6.48321533 -1.33319824 5.47814941 -1.26538086 4.44262695 C-1 2 -1 2 0 0 Z " fill="#094A8B" transform="translate(297,110)"/>
<path d="M0 0 C0.99 0.495 0.99 0.495 2 1 C4.62627133 1.08667255 7.22562483 1.11560135 9.8515625 1.09765625 C10.62559418 1.0962413 11.39962585 1.09482635 12.19711304 1.09336853 C14.67311442 1.08776403 17.14902588 1.07521083 19.625 1.0625 C21.30208203 1.05748558 22.97916547 1.05292257 24.65625 1.04882812 C28.77086806 1.03779315 32.88541878 1.02052554 37 1 C37 1.33 37 1.66 37 2 C35.55379272 2.03758423 35.55379272 2.03758423 34.07836914 2.07592773 C30.51312158 2.16985306 26.94807567 2.27010939 23.38305664 2.37231445 C21.83785711 2.41571985 20.29260786 2.45739071 18.74731445 2.49731445 C16.53060904 2.55488199 14.3141552 2.61861424 12.09765625 2.68359375 C11.05545677 2.70866249 11.05545677 2.70866249 9.99220276 2.73423767 C6.71237971 2.56502856 6.71237971 2.56502856 4 4 C3.92674832 6.86267567 3.90761795 9.700719 3.9375 12.5625 C3.94201172 13.36880859 3.94652344 14.17511719 3.95117188 15.00585938 C3.96299482 17.00393756 3.98093086 19.00197783 4 21 C3.01 21 2.02 21 1 21 C0.67 21.66 0.34 22.32 0 23 C0 15.41 0 7.82 0 0 Z " fill="#014D8E" transform="translate(283,252)"/>
<path d="M0 0 C0.33 0 0.66 0 1 0 C1 7.59 1 15.18 1 23 C-10.88 23 -22.76 23 -35 23 C-35 22.67 -35 22.34 -35 22 C-24.11 22 -13.22 22 -2 22 C-2 15.4 -2 8.8 -2 2 C-1.34 2 -0.68 2 0 2 C0 1.34 0 0.68 0 0 Z " fill="#04836A" transform="translate(205,45)"/>
<path d="M0 0 C0.33 0 0.66 0 1 0 C1.15283216 3.20947538 1.13113968 5.64158638 0.01953125 8.6796875 C-1.41510228 13.35186567 -1.38886813 17.86461586 -1.47851562 22.72265625 C-1.65440331 27.518813 -2.49256899 30.77414294 -5 35 C-7.32823094 31.50765359 -7.13673569 30.81408254 -6.57421875 26.81640625 C-6.43693359 25.80642578 -6.29964844 24.79644531 -6.15820312 23.75585938 C-5.92520508 22.17514648 -5.92520508 22.17514648 -5.6875 20.5625 C-5.54376953 19.51255859 -5.40003906 18.46261719 -5.25195312 17.38085938 C-4.08914448 9.05005222 -4.08914448 9.05005222 -3 5 C-2.34 5 -1.68 5 -1 5 C-0.67 3.35 -0.34 1.7 0 0 Z " fill="#0CA06E" transform="translate(151,141)"/>
<path d="M0 0 C0.33 0 0.66 0 1 0 C1.04934399 5.94481181 1.08569282 11.88950509 1.10986328 17.83447266 C1.11993671 19.85793127 1.13359595 21.88137528 1.15087891 23.90478516 C1.17506847 26.80895589 1.18646949 29.71293461 1.1953125 32.6171875 C1.20563507 33.52556366 1.21595764 34.43393982 1.22659302 35.36984253 C1.22674408 36.21056305 1.22689514 37.05128357 1.22705078 37.91748047 C1.231492 38.65916473 1.23593323 39.400849 1.24050903 40.16500854 C1 42 1 42 -1 44 C-1.59167969 43.60167969 -2.18335938 43.20335937 -2.79296875 42.79296875 C-6.80986636 40.09974702 -10.81567505 37.42960803 -15 35 C-13.68 34.34 -12.36 33.68 -11 33 C-7.7 35.31 -4.4 37.62 -1 40 C-0.67 26.8 -0.34 13.6 0 0 Z " fill="#04926D" transform="translate(145,62)"/>
<path d="M0 0 C7.8316181 -0.2700558 15.27279225 0.76892281 23 2 C23 2.66 23 3.32 23 4 C24.13179687 3.97679687 25.26359375 3.95359375 26.4296875 3.9296875 C27.91145175 3.91093099 29.39322312 3.89273066 30.875 3.875 C31.62136719 3.85824219 32.36773437 3.84148437 33.13671875 3.82421875 C35.09194461 3.8066041 37.04742021 3.89679811 39 4 C39.66 4.66 40.32 5.32 41 6 C32.11816694 6.33077171 23.65517569 6.03013712 14.875 4.625 C13.68620239 4.43587036 13.68620239 4.43587036 12.47338867 4.24291992 C8.15779792 3.5065823 4.12443767 2.51536847 0 1 C0 0.67 0 0.34 0 0 Z " fill="#03636F" transform="translate(211,199)"/>
<path d="M0 0 C4.64209742 0.48355181 8.30563766 1.47911752 12.66796875 3.234375 C17.30657636 4.75726795 22.1781916 5.31691048 27 6 C27.33 6.99 27.66 7.98 28 9 C22.65565977 9.20206762 18.0986039 8.53793156 12.9375 7.1875 C12.25623047 7.02185547 11.57496094 6.85621094 10.87304688 6.68554688 C6.60372288 5.59873529 2.89351078 4.11986781 -1 2 C-0.67 1.34 -0.34 0.68 0 0 Z " fill="#006968" transform="translate(203,221)"/>
<path d="M0 0 C0.33 0 0.66 0 1 0 C0.74385063 4.35453922 0.42722153 6.49609768 -2.4375 9.875 C-5.91866775 12.76182204 -7.48133978 13.1244302 -11.90869141 13.11352539 C-12.92959869 13.11344986 -13.95050598 13.11337433 -15.00234985 13.11329651 C-16.66021011 13.10555458 -16.66021011 13.10555458 -18.3515625 13.09765625 C-19.4807309 13.0962413 -20.60989929 13.09482635 -21.77328491 13.09336853 C-25.39054988 13.08775744 -29.00775364 13.07520303 -32.625 13.0625 C-35.07291577 13.05748643 -37.52083252 13.05292328 -39.96875 13.04882812 C-45.97918766 13.0377844 -51.98958946 13.02103544 -58 13 C-58 12.67 -58 12.34 -58 12 C-57.3927861 11.98969254 -56.7855722 11.97938507 -56.15995789 11.96876526 C-49.84977387 11.86072768 -43.53973345 11.74612733 -37.22973633 11.62768555 C-34.87364705 11.58432792 -32.51752617 11.54265346 -30.16137695 11.50268555 C-26.77806062 11.44500324 -23.39490343 11.38130269 -20.01171875 11.31640625 C-18.95538742 11.29969376 -17.89905609 11.28298126 -16.81071472 11.26576233 C-15.33952934 11.2358445 -15.33952934 11.2358445 -13.83862305 11.20532227 C-12.97480515 11.18977798 -12.11098724 11.1742337 -11.22099304 11.15821838 C-8.82634575 11.07990261 -8.82634575 11.07990261 -6 10 C-4.77554716 8.37051936 -4.77554716 8.37051936 -3.8125 6.4375 C-3.214375 5.303125 -2.61625 4.16875 -2 3 C-1.34 3 -0.68 3 0 3 C0 2.01 0 1.02 0 0 Z " fill="#00438A" transform="translate(342,263)"/>
<path d="M0 0 C-2 3 -2 3 -4.26147461 3.69067383 C-9.36353615 4.2669698 -14.44312234 3.90020038 -19.5625 3.6875 C-21.26696289 3.63432617 -21.26696289 3.63432617 -23.00585938 3.58007812 C-24.09833984 3.53689453 -25.19082031 3.49371094 -26.31640625 3.44921875 C-27.31099854 3.41143311 -28.30559082 3.37364746 -29.33032227 3.3347168 C-31.99407374 3.00074302 -33.70573875 2.35571531 -36 1 C-31.87512849 0.83005132 -27.75008624 0.66464746 -23.625 0.5 C-22.46871094 0.45230469 -21.31242188 0.40460938 -20.12109375 0.35546875 C-13.40947189 0.09003738 -6.71685617 -0.06910741 0 0 Z " fill="#0A6487" transform="translate(267,165)"/>
<path d="M0 0 C2.125 0.375 2.125 0.375 4 1 C3.98839844 1.96421875 3.97679687 2.9284375 3.96484375 3.921875 C3.95582031 5.18515625 3.94679687 6.4484375 3.9375 7.75 C3.92589844 9.00296875 3.91429687 10.2559375 3.90234375 11.546875 C3.97978973 14.28536501 4.17219185 16.41880293 5 19 C5.66 19 6.32 19 7 19 C7 19.66 7 20.32 7 21 C8.2065625 21.433125 8.2065625 21.433125 9.4375 21.875 C12 23 12 23 13 25 C7.94489444 24.55396127 5.59833262 22.35299176 2 19 C0.17482887 15.34965773 0.58830887 10.99640885 0.37890625 6.96875 C0.29302673 3.88509744 0.29302673 3.88509744 -2 2 C-1.34 1.34 -0.68 0.68 0 0 Z " fill="#03856D" transform="translate(190,125)"/>
<path d="M0 0 C0 0.66 0 1.32 0 2 C0.99 2.33 1.98 2.66 3 3 C0.31460585 3.53466228 -2.37232628 4.05294683 -5.0625 4.5625 C-5.81466797 4.71396484 -6.56683594 4.86542969 -7.34179688 5.02148438 C-12.2334119 5.93204475 -16.1155508 5.9794845 -21 5 C-21 4.34 -21 3.68 -21 3 C-18.81462633 2.49078672 -16.62657569 1.99305563 -14.4375 1.5 C-12.61025391 1.08234375 -12.61025391 1.08234375 -10.74609375 0.65625 C-7.07777293 0.01362446 -3.71497397 -0.11474823 0 0 Z " fill="#016F72" transform="translate(227,91)"/>
<path d="M0 0 C0.66 0 1.32 0 2 0 C2 7.92 2 15.84 2 24 C1.34 24 0.68 24 0 24 C-0.2475 24.763125 -0.495 25.52625 -0.75 26.3125 C-2.10995558 29.2364045 -3.31585826 30.30004356 -6 32 C-6.66 31.67 -7.32 31.34 -8 31 C-7.21625 30.4225 -6.4325 29.845 -5.625 29.25 C-2.63186051 26.68445186 -1.27310275 24.80423468 -0.68115234 20.89355469 C-0.64973145 20.16040039 -0.61831055 19.42724609 -0.5859375 18.671875 C-0.54726563 17.87265625 -0.50859375 17.0734375 -0.46875 16.25 C-0.42234375 15.0125 -0.42234375 15.0125 -0.375 13.75 C-0.33632813 12.90953125 -0.29765625 12.0690625 -0.2578125 11.203125 C-0.16384164 9.13576618 -0.08084436 7.06791373 0 5 C-1.32 5.33 -2.64 5.66 -4 6 C-2.7260411 3.96166576 -1.38938077 1.96147874 0 0 Z " fill="#084787" transform="translate(295,151)"/>
<path d="M0 0 C1.72265625 1.515625 1.72265625 1.515625 3 3 C-6.46850826 4.78831859 -15.40432207 5.23889655 -25 5 C-24.67 4.34 -24.34 3.68 -24 3 C-20.9375 2.375 -20.9375 2.375 -18 2 C-18 1.67 -18 1.34 -18 1 C-5.76205288 -0.40435459 -5.76205288 -0.40435459 0 0 Z " fill="#015A93" transform="translate(262,155)"/>
<path d="M0 0 C0.99 0 1.98 0 3 0 C3.04939662 3.95096978 3.08571755 7.9018203 3.10986328 11.85302734 C3.12488107 13.8591136 3.15028981 15.86511324 3.17578125 17.87109375 C3.18222656 19.12792969 3.18867188 20.38476562 3.1953125 21.6796875 C3.20578613 22.84226074 3.21625977 24.00483398 3.22705078 25.20263672 C3 28 3 28 1 30 C0.34 28.02 -0.32 26.04 -1 24 C-0.34 24 0.32 24 1 24 C1 16.74 1 9.48 1 2 C0.01 2.99 -0.98 3.98 -2 5 C-1.34 3.35 -0.68 1.7 0 0 Z " fill="#084F93" transform="translate(295,185)"/>
<path d="M0 0 C0.33 0.99 0.66 1.98 1 3 C-3.62197306 5.21854707 -6.76824163 6.38281159 -12 6 C-12 6.66 -12 7.32 -12 8 C-13.8125 9.0625 -13.8125 9.0625 -16 10 C-16.99 9.67 -17.98 9.34 -19 9 C-18.34 9 -17.68 9 -17 9 C-16.96648437 8.39671875 -16.93296875 7.7934375 -16.8984375 7.171875 C-16 5 -16 5 -13.1640625 3.515625 C-11.99617187 3.09796875 -10.82828125 2.6803125 -9.625 2.25 C-8.46226562 1.82203125 -7.29953125 1.3940625 -6.1015625 0.953125 C-3 0 -3 0 0 0 Z " fill="#048573" transform="translate(205,95)"/>
<path d="M0 0 C0.33 0.99 0.66 1.98 1 3 C0.32626343 3.62044189 0.32626343 3.62044189 -0.36108398 4.25341797 C-2.38932289 6.12430483 -4.41344712 7.99958564 -6.4375 9.875 C-7.14455078 10.52597656 -7.85160156 11.17695312 -8.58007812 11.84765625 C-9.59038086 12.78544922 -9.59038086 12.78544922 -10.62109375 13.7421875 C-11.2442749 14.3182373 -11.86745605 14.89428711 -12.50952148 15.48779297 C-14.10334977 16.948904 -14.10334977 16.948904 -15 19 C-15.99 19 -16.98 19 -18 19 C-17.35330586 17.65686601 -16.68096422 16.32608822 -16 15 C-15.566875 14.154375 -15.13375 13.30875 -14.6875 12.4375 C-12.71063206 9.58202409 -10.99959334 8.73309838 -8 7 C-5.26726053 4.73964858 -2.6283282 2.38049577 0 0 Z " fill="#059760" transform="translate(168,97)"/>
<path d="M0 0 C0.33 0.66 0.66 1.32 1 2 C-0.46904785 2.9741687 -0.46904785 2.9741687 -1.96777344 3.96801758 C-4.86460287 6.3978139 -4.98402071 6.90324122 -5.64941406 10.93237305 C-5.63504002 12.45940528 -5.58871199 13.98636884 -5.515625 15.51171875 C-5.49577545 16.72587212 -5.49577545 16.72587212 -5.4755249 17.96455383 C-5.42884848 20.5404431 -5.34144491 23.11284463 -5.25 25.6875 C-5.17988364 28.27244053 -5.11834844 30.85719371 -5.06732178 33.44258118 C-5.03334711 35.04884681 -4.98704315 36.65490777 -4.92730713 38.26042175 C-4.87578089 40.17307402 -4.92887698 42.08797616 -5 44 C-5.66 44.66 -6.32 45.32 -7 46 C-8.78299154 39.60233376 -8.13896455 32.75790148 -8.03271484 26.16479492 C-8.01092897 24.43184277 -8.00341089 22.69865175 -8.01025391 20.96557617 C-8.0193164 18.45598073 -7.98322123 15.95053122 -7.9375 13.44140625 C-7.94861816 12.67043106 -7.95973633 11.89945587 -7.97119141 11.1051178 C-7.86730963 7.77885185 -7.78713465 5.79378996 -5.37939453 3.36569214 C-3.44140625 1.97241211 -3.44140625 1.97241211 0 0 Z " fill="#0FB168" transform="translate(155,225)"/>
<path d="M0 0 C1.25050287 2.50100574 1.02993449 4.00343052 0.87890625 6.7890625 C0.83056641 7.73007813 0.78222656 8.67109375 0.73242188 9.640625 C0.67634766 10.62546875 0.62027344 11.6103125 0.5625 12.625 C0.51029297 13.61757812 0.45808594 14.61015625 0.40429688 15.6328125 C0.27441051 18.08884568 0.13943836 20.5444936 0 23 C-0.33 23 -0.66 23 -1 23 C-1 17.39 -1 11.78 -1 6 C-5.14951218 8.3376543 -5.14951218 8.3376543 -9.28637695 10.69750977 C-10.8179076 11.54140473 -12.40959159 12.27312592 -14 13 C-14.99 12.67 -15.98 12.34 -17 12 C-15.948125 11.4225 -14.89625 10.845 -13.8125 10.25 C-10.61515611 8.43494215 -7.86403075 6.30713588 -5 4 C-4.01 3.67 -3.02 3.34 -2 3 C-1.34 2.01 -0.68 1.02 0 0 Z " fill="#033F80" transform="translate(296,186)"/>
<path d="M0 0 C-0.99 0.33 -1.98 0.66 -3 1 C-3 1.66 -3 2.32 -3 3 C-9.64041122 4.22399452 -16.20221697 4.11227753 -22.9375 4.0625 C-24.67870117 4.05573242 -24.67870117 4.05573242 -26.45507812 4.04882812 C-29.30343934 4.03710647 -32.15169222 4.0206976 -35 4 C-35 3.67 -35 3.34 -35 3 C-33.19402344 2.90912109 -33.19402344 2.90912109 -31.3515625 2.81640625 C-29.77602923 2.73200268 -28.20050904 2.64735459 -26.625 2.5625 C-25.8309375 2.52318359 -25.036875 2.48386719 -24.21875 2.44335938 C-19.97398779 2.31106596 -19.97398779 2.31106596 -16 1 C-10.6922635 0.22675062 -5.36297345 -0.14113088 0 0 Z " fill="#00557B" transform="translate(268,191)"/>
<path d="M0 0 C0.99 0 1.98 0 3 0 C2.34 1.32 1.68 2.64 1 4 C0.34 4 -0.32 4 -1 4 C-1 4.66 -1 5.32 -1 6 C-2.18034977 7.14662549 -3.36248446 8.29148521 -4.5546875 9.42578125 C-7.17999744 12.28524046 -9.0515329 15.6585862 -11 19 C-11.66 18.67 -12.32 18.34 -13 18 C-11.7064371 13.19132053 -9.90772967 10.35688271 -6.5 6.75 C-5.7059375 5.89921875 -4.911875 5.0484375 -4.09375 4.171875 C-2.74154305 2.76921256 -1.3776657 1.3776657 0 0 Z " fill="#098B6C" transform="translate(186,128)"/>
<path d="M0 0 C6.44163658 1.33694344 6.44163658 1.33694344 9 4.375 C10.13908894 7.36510847 9.82952443 8.03805868 9 11 C8.77609683 13.75317974 8.58606338 16.49305329 8.4375 19.25 C8.39431641 19.99507812 8.35113281 20.74015625 8.30664062 21.5078125 C8.20103275 23.338349 8.10005799 25.16915176 8 27 C7.67 27 7.34 27 7 27 C6.95101563 25.83082031 6.90203125 24.66164063 6.8515625 23.45703125 C6.77649829 21.90883196 6.70095205 20.36065599 6.625 18.8125 C6.5940625 18.04357422 6.563125 17.27464844 6.53125 16.48242188 C6.31559975 12.29521284 6.00945293 8.77490086 4 5 C2.69481525 3.96352976 1.36538653 2.95577057 0 2 C0 1.34 0 0.68 0 0 Z " fill="#044C88" transform="translate(288,101)"/>
<path d="M0 0 C6.27 0 12.54 0 19 0 C19 0.99 19 1.98 19 3 C16.20775927 3.08071788 13.41783434 3.14035408 10.625 3.1875 C9.8309375 3.21263672 9.036875 3.23777344 8.21875 3.26367188 C6.14413852 3.29004405 4.06899135 3.15486462 2 3 C1.34 2.01 0.68 1.02 0 0 Z " fill="#018067" transform="translate(186,273)"/>
<path d="M0 0 C-1.79036458 0.9765625 -3.58072917 1.953125 -5.37109375 2.9296875 C-7.16618315 3.91410024 -7.16618315 3.91410024 -8 6 C-10.546875 6.6328125 -10.546875 6.6328125 -13.75 7.125 C-14.79671875 7.29257813 -15.8434375 7.46015625 -16.921875 7.6328125 C-19.6561577 7.95898328 -22.25107058 8.07126854 -25 8 C-23.66666667 7.33333333 -22.33333333 6.66666667 -21 6 C-20.175 5.54625 -19.35 5.0925 -18.5 4.625 C-4.97014925 -1.65671642 -4.97014925 -1.65671642 0 0 Z " fill="#024C8D" transform="translate(287,195)"/>
<path d="M0 0 C0.33 0 0.66 0 1 0 C0.69430564 4.29218017 0.37929775 8.58362619 0.0625 12.875 C-0.02451172 14.09832031 -0.11152344 15.32164062 -0.20117188 16.58203125 C-0.28818359 17.74863281 -0.37519531 18.91523438 -0.46484375 20.1171875 C-0.543396 21.19597168 -0.62194824 22.27475586 -0.70288086 23.38623047 C-1 26 -1 26 -2 28 C-2.66 28 -3.32 28 -4 28 C-4.33 28.66 -4.66 29.32 -5 30 C-4.51040383 27.04493739 -4.0159498 24.09121293 -3.5 21.140625 C-2.51042218 15.41962821 -1.70508566 9.74985591 -1.24609375 3.9609375 C-1 2 -1 2 0 0 Z " fill="#128C70" transform="translate(169,155)"/>
<path d="M0 0 C2.64 0.66 5.28 1.32 8 2 C8 2.66 8 3.32 8 4 C9.423125 3.938125 9.423125 3.938125 10.875 3.875 C14 4 14 4 16 6 C15.67 6.99 15.34 7.98 15 9 C12.86886638 8.26761042 10.74520249 7.51345686 8.625 6.75 C7.44164062 6.33234375 6.25828125 5.9146875 5.0390625 5.484375 C2 4 2 4 0.5859375 1.828125 C0.39257812 1.22484375 0.19921875 0.6215625 0 0 Z " fill="#01726C" transform="translate(199,183)"/>
<path d="M0 0 C0.66 0 1.32 0 2 0 C2.49673603 3.4771522 2.16389216 4.76508791 0.125 7.6875 C-4.03356006 10.76483445 -7.94626412 11.34252368 -13 12 C-9.2421875 9.09375 -9.2421875 9.09375 -7.0625 8.25 C-4.24118556 6.54011246 -2.90945388 4.20902039 -1.1484375 1.4609375 C-0.76945312 0.97882813 -0.39046875 0.49671875 0 0 Z " fill="#033F84" transform="translate(294,211)"/>
<path d="M0 0 C1.32 1.32 2.64 2.64 4 4 C3.34 4 2.68 4 2 4 C2 10.6 2 17.2 2 24 C0 22 0 22 -0.22705078 19.75341797 C-0.21657715 18.84221191 -0.20610352 17.93100586 -0.1953125 16.9921875 C-0.18886719 16.00605469 -0.18242187 15.01992187 -0.17578125 14.00390625 C-0.15902344 12.97136719 -0.14226562 11.93882812 -0.125 10.875 C-0.11597656 9.83472656 -0.10695312 8.79445312 -0.09765625 7.72265625 C-0.07403747 5.14820908 -0.04110149 2.57421788 0 0 Z " fill="#078E79" transform="translate(193,154)"/>
<path d="M0 0 C0.33 0 0.66 0 1 0 C1.09935088 4.30495015 1.17169268 8.60928183 1.21972656 12.91503906 C1.23976332 14.37772252 1.26700104 15.84032666 1.30175781 17.30273438 C1.35063225 19.4129601 1.37304659 21.52212136 1.390625 23.6328125 C1.41157227 24.90012207 1.43251953 26.16743164 1.45410156 27.47314453 C0.9190167 31.62897028 -0.38859749 33.76518736 -3 37 C-3.99 37.495 -3.99 37.495 -5 38 C-5 36.68 -5 35.36 -5 34 C-4.01 34 -3.02 34 -2 34 C-0.88134245 30.35341523 -0.79629108 26.8463849 -0.68359375 23.046875 C-0.66281265 22.38665344 -0.64203156 21.72643188 -0.62062073 21.04620361 C-0.55549853 18.94756985 -0.49641498 16.84881628 -0.4375 14.75 C-0.39427921 13.32290453 -0.3506638 11.89582095 -0.30664062 10.46875 C-0.19985589 6.97929278 -0.09848434 3.48970247 0 0 Z " fill="#014AA4" transform="translate(297,110)"/>
<path d="M0 0 C-5 4 -10 8 -15 12 C-14.50971384 7.75573178 -13.44544451 5.98207963 -10.1875 3.25 C-9.15689453 2.36054687 -9.15689453 2.36054687 -8.10546875 1.453125 C-5.22665697 -0.53373582 -3.24070936 -1.62035468 0 0 Z " fill="#068B6A" transform="translate(179,109)"/>
<path d="M0 0 C0.80566406 0.00322266 1.61132812 0.00644531 2.44140625 0.00976562 C3.70404297 0.02233398 3.70404297 0.02233398 4.9921875 0.03515625 C6.26642578 0.04192383 6.26642578 0.04192383 7.56640625 0.04882812 C9.66669659 0.06062751 11.7669508 0.07856319 13.8671875 0.09765625 C13.8671875 0.42765625 13.8671875 0.75765625 13.8671875 1.09765625 C12.91457031 1.15824219 11.96195313 1.21882813 10.98046875 1.28125 C9.72621094 1.36503906 8.47195312 1.44882812 7.1796875 1.53515625 C5.93832031 1.61636719 4.69695312 1.69757812 3.41796875 1.78125 C-0.9157948 2.14416403 -0.9157948 2.14416403 -5.1328125 3.09765625 C-7.46695897 6.05615552 -7.46695897 6.05615552 -9.1328125 9.09765625 C-9.7928125 8.10765625 -10.4528125 7.11765625 -11.1328125 6.09765625 C-5.1561267 -0.03631075 -5.1561267 -0.03631075 0 0 Z " fill="#009C5D" transform="translate(158.1328125,43.90234375)"/>
<path d="M0 0 C0.680625 0.474375 1.36125 0.94875 2.0625 1.4375 C5.41841956 3.2225636 8.24161481 3.63153086 12 4 C12 4.99 12 5.98 12 7 C6.28341664 7.45732667 3.51350747 6.52273754 -1 3 C-0.67 2.01 -0.34 1.02 0 0 Z " fill="#01A154" transform="translate(149,269)"/>
<path d="M0 0 C9.9 0 19.8 0 30 0 C30 0.33 30 0.66 30 1 C29.29391602 1.02505615 28.58783203 1.0501123 27.86035156 1.07592773 C24.65672491 1.19207369 21.45337882 1.31471603 18.25 1.4375 C17.13882813 1.47681641 16.02765625 1.51613281 14.8828125 1.55664062 C13.27792969 1.61948242 13.27792969 1.61948242 11.640625 1.68359375 C10.65610352 1.72025146 9.67158203 1.75690918 8.65722656 1.79467773 C6.31076449 1.97598742 4.25281588 2.34331819 2 3 C1.34 2.01 0.68 1.02 0 0 Z " fill="#005069" transform="translate(230,228)"/>
<path d="M0 0 C0.33 0.66 0.66 1.32 1 2 C-3.36877637 6.82864757 -7.56215747 8.36883897 -14 9 C-9.7045025 5.25876024 -5.00099548 2.65848126 0 0 Z " fill="#029C5B" transform="translate(188,100)"/>
<path d="M0 0 C0.66 0.33 1.32 0.66 2 1 C0.57282151 2.67551353 -0.86708482 4.34019309 -2.3125 6 C-3.11300781 6.928125 -3.91351563 7.85625 -4.73828125 8.8125 C-7 11 -7 11 -10 11 C-10 11.99 -10 12.98 -10 14 C-10.66 14 -11.32 14 -12 14 C-11.59773543 9.58540416 -8.59612875 7.46302944 -5.4375 4.75 C-4.91736328 4.29109375 -4.39722656 3.8321875 -3.86132812 3.359375 C-2.58104445 2.2317857 -1.29141202 1.11482685 0 0 Z " fill="#07A861" transform="translate(157,219)"/>
<path d="M0 0 C0.66 0 1.32 0 2 0 C2 3.96 2 7.92 2 12 C1.67 12 1.34 12 1 12 C0.67 9.36 0.34 6.72 0 4 C-2.22189824 6.22189824 -2.92598892 8.08482708 -4 11 C-4.99 11 -5.98 11 -7 11 C-5.25731793 7.03935893 -2.85325271 3.25563451 0 0 Z " fill="#059C6C" transform="translate(168,205)"/>
<path d="M0 0 C5.32306266 2.01413182 8.39754811 3.79509622 11 9 C10.67 9.66 10.34 10.32 10 11 C6.31353859 9.54144353 4.83856029 7.69770955 2.75 4.375 C1.96882813 3.14910156 1.96882813 3.14910156 1.171875 1.8984375 C0.78515625 1.27195313 0.3984375 0.64546875 0 0 Z " fill="#04B843" transform="translate(24,199)"/>
<path d="M0 0 C0.99 0.33 1.98 0.66 3 1 C1.61714856 2.49131037 0.21814261 3.96765185 -1.1875 5.4375 C-1.96480469 6.26121094 -2.74210938 7.08492187 -3.54296875 7.93359375 C-6.1461801 10.12294002 -7.66227956 10.67393495 -11 11 C-7.33333333 7.33333333 -3.66666667 3.66666667 0 0 Z " fill="#0A9260" transform="translate(150,208)"/>
<path d="M0 0 C1.77260631 0.45142775 3.5430368 0.91140523 5.3125 1.375 C6.79169922 1.75785156 6.79169922 1.75785156 8.30078125 2.1484375 C11 3 11 3 14 5 C8.03596489 6.83508773 4.24817912 4.71739052 -1 2 C-0.67 1.34 -0.34 0.68 0 0 Z " fill="#00755F" transform="translate(204,150)"/>
<path d="M0 0 C0.66 0.33 1.32 0.66 2 1 C0.61085525 5.29718953 -1.38031985 7.70687757 -4.625 10.8125 C-5.44226563 11.60269531 -6.25953125 12.39289063 -7.1015625 13.20703125 C-7.72804687 13.79871094 -8.35453125 14.39039063 -9 15 C-9.66 14.67 -10.32 14.34 -11 14 C-10.37351563 13.32453125 -9.74703125 12.6490625 -9.1015625 11.953125 C-8.28429687 11.06109375 -7.46703125 10.1690625 -6.625 9.25 C-5.81289062 8.36828125 -5.00078125 7.4865625 -4.1640625 6.578125 C-2.3374152 4.40197479 -1.10212006 2.59179881 0 0 Z " fill="#0BAA6D" transform="translate(141,185)"/>
<path d="M0 0 C0 0.66 0 1.32 0 2 C1.65 2 3.3 2 5 2 C5 2.33 5 2.66 5 3 C3.20909747 3.19466332 1.41723495 3.38051213 -0.375 3.5625 C-1.87160156 3.71912109 -1.87160156 3.71912109 -3.3984375 3.87890625 C-6 4 -6 4 -8 3 C-8 2.34 -8 1.68 -8 1 C-5.07175348 0.02391783 -3.04386724 -0.08226668 0 0 Z " fill="#028172" transform="translate(214,93)"/>
<path d="M0 0 C1.5778125 0.42539063 1.5778125 0.42539063 3.1875 0.859375 C4.239375 1.13265625 5.29125 1.4059375 6.375 1.6875 C9.1875 2.609375 9.1875 2.609375 12.1875 4.609375 C5.9820858 4.12616652 0.18804754 3.27619376 -5.8125 1.609375 C-2.8125 -0.390625 -2.8125 -0.390625 0 0 Z " fill="#024D81" transform="translate(269.8125,93.390625)"/>
<path d="M0 0 C0.33 0 0.66 0 1 0 C1.15887802 4.40886502 0.63526218 8.11776684 -0.5 12.375 C-0.7784375 13.43460938 -1.056875 14.49421875 -1.34375 15.5859375 C-1.5603125 16.38257813 -1.776875 17.17921875 -2 18 C-2.33 18 -2.66 18 -3 18 C-3 13.71 -3 9.42 -3 5 C-2.34 5 -1.68 5 -1 5 C-0.67 3.35 -0.34 1.7 0 0 Z " fill="#0C9167" transform="translate(151,141)"/>
<path d="M0 0 C4.26672384 0.47408043 6.2455048 2.88307122 9 6 C10.3125 8.3125 10.3125 8.3125 11 10 C9.66666667 9.33333333 8.33333333 8.66666667 7 8 C6.278125 7.71125 5.55625 7.4225 4.8125 7.125 C3 6 3 6 2.375 4 C2.25125 3.34 2.1275 2.68 2 2 C1.34 1.34 0.68 0.68 0 0 Z " fill="#0CAA62" transform="translate(126,117)"/>
<path d="M0 0 C-2.64 1.98 -5.28 3.96 -8 6 C-8.33 4.68 -8.66 3.36 -9 2 C-4.5 -1.125 -4.5 -1.125 0 0 Z " fill="#05B448" transform="translate(60,120)"/>
<path d="M0 0 C0.66 0.99 1.32 1.98 2 3 C-1.0657052 7.65987191 -3.58657319 8.85485202 -9 10 C-7.13486103 8.13486103 -5.26262317 6.28017977 -3.375 4.4375 C-0.99358358 2.24040181 -0.99358358 2.24040181 0 0 Z " fill="#013D7C" transform="translate(295,175)"/>
<path d="M0 0 C0.99 0.33 1.98 0.66 3 1 C3 1.66 3 2.32 3 3 C3.99 3.33 4.98 3.66 6 4 C5.01 4.495 5.01 4.495 4 5 C3.67 5.66 3.34 6.32 3 7 C1.35 5.35 -0.3 3.7 -2 2 C-1.34 1.34 -0.68 0.68 0 0 Z " fill="#048471" transform="translate(195,178)"/>
<path d="M0 0 C2.97 0.495 2.97 0.495 6 1 C5.67 1.99 5.34 2.98 5 4 C5.66 4 6.32 4 7 4 C7.33 5.65 7.66 7.3 8 9 C6.84775972 8.07038578 5.70340824 7.1309875 4.5625 6.1875 C3.60537109 5.40439453 3.60537109 5.40439453 2.62890625 4.60546875 C1 3 1 3 0 0 Z " fill="#04417F" transform="translate(288,101)"/>
<path d="M0 0 C0.33 1.32 0.66 2.64 1 4 C1.66 4 2.32 4 3 4 C3.33 5.32 3.66 6.64 4 8 C2.35 8.33 0.7 8.66 -1 9 C-1.125 2.25 -1.125 2.25 0 0 Z " fill="#06B950" transform="translate(52,210)"/>
<path d="M0 0 C3.63 0 7.26 0 11 0 C8.23776722 2.76223278 5.79293383 2.57856291 2 3 C1.34 2.01 0.68 1.02 0 0 Z " fill="#00A93E" transform="translate(82,107)"/>
<path d="M0 0 C0.33 0 0.66 0 1 0 C1 3.3 1 6.6 1 10 C0.34 10 -0.32 10 -1 10 C-2.23076923 4.58461538 -2.23076923 4.58461538 -1.0625 1.625 C-0.5365625 0.820625 -0.5365625 0.820625 0 0 Z " fill="#07AC4F" transform="translate(34,217)"/>
<path d="M0 0 C0.33 0.66 0.66 1.32 1 2 C-0.98 4.97 -0.98 4.97 -3 8 C-3.66 7.67 -4.32 7.34 -5 7 C-3.75023244 3.34683329 -3.32901247 2.21934164 0 0 Z " fill="#089A63" transform="translate(157,200)"/>
<path d="M0 0 C0.66 0.33 1.32 0.66 2 1 C-1.465 3.97 -1.465 3.97 -5 7 C-5.66 6.34 -6.32 5.68 -7 5 C-5.60683123 2.21366246 -3.84019484 2.06507306 -1 1 C-0.67 0.67 -0.34 0.34 0 0 Z " fill="#0BA94A" transform="translate(41,103)"/>
<path d="M0 0 C2.97 0 5.94 0 9 0 C8.67 0.99 8.34 1.98 8 3 C5.6875 3.1875 5.6875 3.1875 3 3 C2.01 2.01 1.02 1.02 0 0 Z " fill="#006E77" transform="translate(224,201)"/>
<path d="M0 0 C0.99 0 1.98 0 3 0 C2.34 1.32 1.68 2.64 1 4 C0.34 4 -0.32 4 -1 4 C-1 4.66 -1 5.32 -1 6 C-1.66 6 -2.32 6 -3 6 C-2.42655063 3.13275314 -2.1385485 2.1385485 0 0 Z " fill="#079462" transform="translate(186,128)"/>
<path d="M0 0 C2.97 0.33 5.94 0.66 9 1 C5.77208445 3.1519437 4.71599191 3.20086443 1 3 C0.67 2.01 0.34 1.02 0 0 Z " fill="#00A04F" transform="translate(98,107)"/>
<path d="M0 0 C0.33 0.66 0.66 1.32 1 2 C0.34 2 -0.32 2 -1 2 C-1 2.66 -1 3.32 -1 4 C-3.64 3.67 -6.28 3.34 -9 3 C-6.03312999 1.35173889 -3.34373475 0.55728913 0 0 Z " fill="#01B542" transform="translate(79,84)"/>
<path d="M0 0 C0.33 0.99 0.66 1.98 1 3 C-2.375 3.125 -2.375 3.125 -6 3 C-6.66 2.34 -7.32 1.68 -8 1 C-5.23735711 0.40267181 -2.83967231 0 0 0 Z " fill="#016F77" transform="translate(230,227)"/>
<path d="M0 0 C0.66 0 1.32 0 2 0 C0.68775452 3.93673644 -0.91910327 6.22719294 -4 9 C-4.66 8.67 -5.32 8.34 -6 8 C-4.73046875 6.50260417 -3.4609375 5.00520833 -2.19140625 3.5078125 C-0.9121848 1.99405921 -0.9121848 1.99405921 0 0 Z " fill="#0D9661" transform="translate(159,217)"/>
<path d="M0 0 C0.66 0.33 1.32 0.66 2 1 C1.01 2.32 0.02 3.64 -1 5 C-0.34 5.33 0.32 5.66 1 6 C0.01 6.66 -0.98 7.32 -2 8 C-2.66 7.67 -3.32 7.34 -4 7 C-2.92598892 4.08482708 -2.22189824 2.22189824 0 0 Z " fill="#0BAC61" transform="translate(151,111)"/>
<path d="M0 0 C3.465 1.98 3.465 1.98 7 4 C5.25 4.75 5.25 4.75 3 5 C0.75 3.0625 0.75 3.0625 -1 1 C-0.67 0.67 -0.34 0.34 0 0 Z " fill="#007467" transform="translate(196,145)"/>
<path d="M0 0 C1 2 1 2 0.25 4.4375 C-0.93098981 6.85852911 -1.9831559 8.25818009 -4 10 C-3.43454163 6.04179141 -2.19097652 3.3340947 0 0 Z " fill="#0CA650" transform="translate(25,122)"/>
<path d="M0 0 C0.99 0 1.98 0 3 0 C3 0.66 3 1.32 3 2 C3.99 2.33 4.98 2.66 6 3 C6 3.99 6 4.98 6 6 C3.37812506 4.95125002 2.20628639 4.35068687 0.75 1.875 C0.5025 1.25625 0.255 0.6375 0 0 Z " fill="#059C5C" transform="translate(123,116)"/>
</svg>
